<?xml version="1.0" standalone="no"?>
<!DOCTYPE svg PUBLIC "-//W3C//DTD SVG 1.1//EN" "http://www.w3.org/Graphics/SVG/1.1/DTD/svg11.dtd" >
<svg xmlns="http://www.w3.org/2000/svg" xmlns:xlink="http://www.w3.org/1999/xlink" version="1.1">
<metadata></metadata>
<defs>
<font id="andes_ultralightultralight" horiz-adv-x="1417" >
<font-face units-per-em="2048" ascent="1536" descent="-512" />
<missing-glyph horiz-adv-x="524" />
<glyph unicode="&#xfb01;" horiz-adv-x="1024" d="M70 952v35h143v225q0 125 68.5 201t189.5 76q50 0 93 -11.5t68.5 -28.5t44 -33.5t25.5 -27.5l7 -12l-23 -26q-2 4 -7 11t-23.5 25t-41 32t-61.5 25t-84 11q-98 0 -158.5 -64.5t-60.5 -177.5v-225h592v-840q0 -58 19.5 -85t68.5 -27v-35q-9 -2 -21 -2q-45 0 -74.5 36 t-29.5 113v805h-555v-952h-37v952h-143zM772 1276q0 22 15.5 37.5t37.5 15.5t38 -15.5t16 -37.5t-16 -37.5t-38 -15.5t-37.5 15.5t-15.5 37.5z" />
<glyph unicode="&#xfb02;" horiz-adv-x="1095" d="M70 952v35h143v225q0 125 68.5 201t189.5 76q50 0 93 -11.5t68.5 -28.5t44 -33.5t25.5 -27.5l7 -12l-23 -26q-2 4 -7 11t-23.5 25t-41 32t-61.5 25t-84 11q-98 0 -158.5 -64.5t-60.5 -177.5v-225h409v-35h-409v-952h-37v952h-143zM872 147v1340h37v-1340q0 -58 19.5 -85 t68.5 -27v-35q-8 -2 -20 -2q-45 0 -75 36t-30 113z" />
<glyph unicode="&#xfb03;" horiz-adv-x="1562" d="M70 952v35h143v225q0 125 68.5 201t189.5 76q50 0 93 -11.5t68.5 -28.5t44 -33.5t25.5 -27.5l7 -12l-23 -26q-2 4 -7 11t-23.5 25t-41 32t-61.5 25t-84 11q-98 0 -158.5 -64.5t-60.5 -177.5v-225h502v225q0 125 68.5 201t189.5 76q50 0 92.5 -11.5t68 -28.5t44 -33.5 t25.5 -27.5l7 -12l-22 -26q-2 4 -7 11t-23.5 25t-41 32t-61.5 25t-84 11q-98 0 -159 -64.5t-61 -177.5v-225h592v-840q0 -58 19.5 -85t68.5 -27v-35q-8 -2 -20 -2q-45 0 -75 36t-30 113v805h-555v-952h-36v952h-502v-952h-37v952h-143zM1311 1276q0 22 15.5 37.5t37.5 15.5 t37.5 -15.5t15.5 -37.5t-15.5 -37.5t-37.5 -15.5t-37.5 15.5t-15.5 37.5z" />
<glyph unicode="&#xfb04;" horiz-adv-x="1634" d="M70 952v35h143v225q0 125 68.5 201t189.5 76q50 0 93 -11.5t68.5 -28.5t44 -33.5t25.5 -27.5l7 -12l-23 -26q-2 4 -7 11t-23.5 25t-41 32t-61.5 25t-84 11q-98 0 -158.5 -64.5t-60.5 -177.5v-225h502v225q0 125 68.5 201t189.5 76q50 0 92.5 -11.5t68 -28.5t44 -33.5 t25.5 -27.5l7 -12l-22 -26q-2 4 -7 11t-23.5 25t-41 32t-61.5 25t-84 11q-98 0 -159 -64.5t-61 -177.5v-225h410v-35h-410v-952h-36v952h-502v-952h-37v952h-143zM1411 147v1340h37v-1340q0 -58 19.5 -85t68.5 -27v-35q-8 -2 -20 -2q-45 0 -75 36t-30 113z" />
<glyph horiz-adv-x="0" />
<glyph horiz-adv-x="682" />
<glyph unicode=" "  horiz-adv-x="524" />
<glyph unicode="&#x09;" horiz-adv-x="524" />
<glyph unicode="&#xa0;" horiz-adv-x="524" />
<glyph unicode="!" horiz-adv-x="446" d="M170 41q0 22 15.5 37.5t37.5 15.5t37.5 -15.5t15.5 -37.5t-15.5 -37.5t-37.5 -15.5t-37.5 15.5t-15.5 37.5zM203 1446h41l-4 -1090h-33z" />
<glyph unicode="&#x22;" horiz-adv-x="507" d="M150 1446h45l-5 -258h-36zM313 1446h45l-4 -258h-37z" />
<glyph unicode="#" horiz-adv-x="1253" d="M117 340l8 37h262l74 332h-254l8 36h254l57 259h37l-57 -259h332l57 259h37l-58 -259h263l-9 -36h-262l-73 -332h254l-9 -37h-254l-57 -258h-37l58 258h-332l-58 -258h-36l57 258h-262zM424 377h332l73 332h-331z" />
<glyph unicode="$" horiz-adv-x="1171" d="M102 258l31 23q5 -10 14.5 -25.5t49 -56.5t88 -72t134 -56.5t185.5 -25.5q197 0 310.5 89t113.5 239q0 82 -31 140t-83 90t-119 52.5t-142 32.5t-149.5 24.5t-141.5 35t-119 58t-83 98.5t-31 151q0 151 117 251t329 101v225h37v-225q69 -3 129.5 -18t102.5 -37t76.5 -48 t55.5 -51.5t35 -46.5t19 -34l6 -13l-32 -16q-2 5 -5.5 13t-19.5 32t-35.5 45.5t-55 48t-77 45.5t-103 32t-130.5 13q-102 0 -182 -26.5t-129 -71.5t-74 -100t-25 -117q0 -81 31 -139t83 -90t119 -52.5t142 -33t149.5 -25.5t141.5 -35.5t119 -58t83 -99t31 -151.5 q0 -158 -121.5 -260t-333.5 -103v-258h-37v258q-73 2 -139 17t-112.5 37.5t-85.5 48.5t-63.5 51.5t-41.5 46.5t-24 34z" />
<glyph unicode="%" horiz-adv-x="1107" d="M98 1153q0 147 51.5 216t143.5 69q194 0 194 -285q0 -146 -51.5 -215.5t-142.5 -69.5t-143 69.5t-52 215.5zM135 1153q0 -254 158 -254t158 254t-158 254t-158 -254zM315 0l435 1434h38l-434 -1434h-39zM621 281q0 284 194 284q195 0 195 -284q0 -146 -52 -215.5 t-143 -69.5t-142.5 69.5t-51.5 215.5zM657 281q0 -254 158 -254t158 254t-158 254t-158 -254z" />
<glyph unicode="&#x26;" horiz-adv-x="1316" d="M143 473q0 71 14.5 134.5t38.5 107.5t52 81t56.5 60t52.5 39t39 23l14 6q-3 4 -8.5 10.5t-20 30.5t-25 50t-19.5 66.5t-9 83.5q0 144 93.5 239t254.5 95q76 0 137.5 -20.5t99 -53t62.5 -75t35 -84t10 -82.5q0 -56 -8.5 -105t-17.5 -71l-9 -21h-37q35 93 35 197 q0 37 -9 74t-32 75t-57 66.5t-88 46.5t-121 18q-142 0 -226.5 -85t-84.5 -214q0 -71 26.5 -136t72 -121t102.5 -112t123.5 -120t129 -132t124 -161t104.5 -195q4 6 11 17.5t25 53.5t32 91t25 131t11 172h37q0 -97 -13 -184.5t-32 -143t-37.5 -97.5t-31.5 -60l-13 -18 q6 -17 15 -47.5t23.5 -122.5t14.5 -181h-37q0 82 -11.5 162t-23.5 119l-12 39q-4 -6 -13 -16t-42.5 -36t-74.5 -46t-112.5 -36t-152.5 -16q-222 0 -357 139t-135 365zM180 473q0 -109 38 -199.5t102 -148.5t145.5 -89.5t169.5 -31.5q77 0 145 15.5t109.5 37.5t72.5 44t44 37 l12 16q-35 95 -89.5 182.5t-119.5 160.5t-127.5 135t-135 135t-120.5 132q-10 -4 -26.5 -13t-59 -44.5t-75 -79.5t-59 -121.5t-26.5 -167.5z" />
<glyph unicode="'" horiz-adv-x="344" d="M150 1446h45l-5 -258h-36z" />
<glyph unicode="(" horiz-adv-x="522" d="M121 494q0 132 17 257.5t43.5 222t59.5 182t65.5 144.5t59 102.5t43.5 63.5l17 21l31 -25q-6 -7 -17 -20.5t-42 -60t-59 -100t-62.5 -139.5t-59.5 -178t-42 -216t-17 -254t16.5 -253.5t43 -217.5t58 -177.5t63.5 -140.5t58.5 -99t42.5 -62l17 -19l-31 -25 q-12 14 -33 41.5t-73.5 122.5t-92.5 201.5t-73 277t-33 351.5z" />
<glyph unicode=")" horiz-adv-x="522" d="M66 -475q6 7 17 20.5t42 60.5t59 100t62.5 139t59.5 178t42 216.5t17 254.5t-16.5 253.5t-43 217.5t-58 177t-63.5 140t-58.5 99t-43.5 61l-16 20l30 25q6 -7 17 -21t43 -63t60.5 -104t64 -143.5t60.5 -182.5t42.5 -220.5t17.5 -258.5t-17 -258t-43.5 -222t-59.5 -181.5 t-65.5 -145t-59 -103t-43.5 -64.5l-17 -20z" />
<glyph unicode="*" horiz-adv-x="866" d="M123 1266l8 39l268 -48l-108 242l37 19l104 -252l178 231l33 -29l-188 -219l286 -43l-6 -37l-282 48l118 -254l-39 -19l-110 258l-174 -219l-33 27l182 213z" />
<glyph unicode="+" horiz-adv-x="917" d="M131 545v37h307v340h41v-340h307v-37h-307v-338h-41v338h-307z" />
<glyph unicode="," horiz-adv-x="403" d="M139 -96q2 1 6.5 2t14.5 7.5t18 15t14.5 24t6.5 35.5q-21 0 -37.5 15t-16.5 38q0 22 16 37.5t38 15.5q28 0 43.5 -21t15.5 -53q0 -37 -10 -66.5t-24.5 -44.5t-29 -25t-24.5 -12l-10 -3z" />
<glyph unicode="-" horiz-adv-x="821" d="M160 545v37h502v-37h-502z" />
<glyph unicode="." horiz-adv-x="397" d="M145 41q0 22 16 37.5t38 15.5t37.5 -15.5t15.5 -37.5t-15.5 -37.5t-37.5 -15.5t-38 15.5t-16 37.5z" />
<glyph unicode="/" horiz-adv-x="765" d="M74 -459l579 1905h41l-579 -1905h-41z" />
<glyph unicode="0" horiz-adv-x="1228" d="M143 715q0 367 117 549t354 182q471 0 471 -731q0 -366 -116 -546.5t-355 -180.5t-355 180t-116 547zM184 715q0 -350 104.5 -520t325.5 -170t325.5 170t104.5 520t-104.5 522t-325.5 172t-325.5 -172t-104.5 -522z" />
<glyph unicode="1" horiz-adv-x="704" d="M80 1059q74 0 142.5 33.5t117.5 87.5t80.5 120.5t38.5 133.5h41v-1434h-41v1311q-14 -46 -47.5 -95t-81 -93t-112 -72.5t-132.5 -28.5z" />
<glyph unicode="2" horiz-adv-x="1095" d="M133 0v98q0 84 26.5 152.5t71.5 116t103 87.5t122 73.5t128 66.5t122 73.5t103 88.5t71.5 117.5t26.5 154.5q0 178 -98.5 279.5t-261.5 101.5q-67 0 -124 -16.5t-94.5 -42.5t-66.5 -57t-45 -62.5t-26.5 -57.5t-13.5 -43l-3 -16l-41 14q1 7 3.5 18.5t14.5 44.5t29 63 t50 66.5t74 63t104.5 44.5t138.5 18q191 0 296 -117t105 -301q0 -89 -26.5 -162t-71.5 -123.5t-103 -92.5t-122 -75l-128 -66t-122 -71.5t-103 -84t-71.5 -110.5t-26.5 -145v-61h795v-37h-836z" />
<glyph unicode="3" horiz-adv-x="1132" d="M111 238l32 20q4 -9 13 -25t42.5 -56t75.5 -71t114.5 -56t156.5 -25q193 0 301 89.5t108 260.5q0 70 -25 129t-64 98t-89.5 66t-99.5 39t-94 12h-97v37h97q56 0 113 22t106.5 62.5t80.5 106.5t31 145q0 136 -96.5 226.5t-263.5 90.5q-56 0 -105 -11.5t-83 -29.5t-62 -40 t-45.5 -43.5t-29.5 -39.5t-16 -29l-5 -12l-35 21q3 9 10 24t37 53t68.5 67t109.5 53t156 24q100 0 178.5 -30.5t126 -81.5t72 -113t24.5 -129q0 -59 -15 -110t-38.5 -86t-52.5 -64t-58 -46t-52.5 -28.5t-38.5 -15.5l-15 -5q6 -1 17.5 -3.5t43.5 -14t61.5 -27t65.5 -44.5 t62 -65t43.5 -90.5t17.5 -117.5q0 -193 -119 -290t-331 -97q-70 0 -131.5 14t-104.5 36t-78.5 48.5t-57 53t-36 48.5t-20.5 36z" />
<glyph unicode="4" horiz-adv-x="1124" d="M80 373v37l518 1024h45l-518 -1024h676v389h41v-389h202v-37h-202v-373h-41v373h-721z" />
<glyph unicode="5" horiz-adv-x="1122" d="M133 180l29 29q4 -7 13 -19.5t42 -44.5t73 -56t109 -44t148 -20q191 0 300 112t109 312q0 166 -113 277.5t-296 111.5q-60 0 -115.5 -9.5t-92 -23t-64 -27.5t-39.5 -24l-13 -9h-41v689h774v-37h-733v-611q4 4 12.5 9.5t38.5 21t64.5 27t91 21t117.5 9.5q198 0 324 -121 t126 -304q0 -93 -25.5 -173.5t-77.5 -146.5t-141 -103.5t-206 -37.5q-84 0 -158 20t-118.5 48t-77.5 56t-47 48z" />
<glyph unicode="6" horiz-adv-x="1187" d="M141 643q0 803 523 803q72 0 133.5 -15.5t97.5 -38t61.5 -45t35.5 -37.5l9 -16l-28 -28q-3 6 -10 15.5t-33.5 34t-58.5 43.5t-87.5 34.5t-119.5 15.5q-112 0 -198.5 -42.5t-151 -131.5t-98.5 -236.5t-34 -347.5q6 9 17.5 24t52.5 53.5t87 68t120.5 53.5t154.5 24 q90 0 169.5 -25t145 -74.5t104 -135t38.5 -197.5q0 -113 -34.5 -201t-95 -142.5t-141 -82.5t-175.5 -28q-106 0 -192 37t-152.5 113.5t-103 205t-36.5 299.5zM182 602q3 -286 125.5 -431.5t317.5 -145.5q186 0 295.5 111t109.5 306q0 192 -113 294t-303 102 q-80 0 -154 -24.5t-122 -59t-85 -69t-54 -59.5z" />
<glyph unicode="7" horiz-adv-x="1009" d="M82 1397v37h862v-37q0 -77 -31.5 -161.5t-81.5 -165t-110 -168t-120.5 -187t-110.5 -205t-81.5 -238.5t-31.5 -272h-41q0 139 31.5 272.5t81.5 239.5t110 205.5t120.5 187.5t110.5 168.5t81.5 164t31.5 159.5h-821z" />
<glyph unicode="8" horiz-adv-x="1196" d="M131 393q0 79 28.5 147t64.5 107t82.5 71t68.5 41.5t37 14.5q-8 2 -26 9t-52 30.5t-62 56t-49.5 91t-21.5 129.5q0 159 106 257.5t287 98.5q103 0 184 -33t129 -88.5t72.5 -122t24.5 -139.5q0 -77 -22.5 -142t-54.5 -103t-64 -65t-55 -37l-22 -11q143 -47 210 -134.5 t67 -199.5q0 -179 -117 -281t-334 -102q-102 0 -188.5 24.5t-152.5 73t-103 127t-37 180.5zM172 393q0 -171 119.5 -269.5t320.5 -98.5q197 0 303.5 89t106.5 257q0 111 -74 194.5t-219 120.5l-270 70q-12 -3 -31 -10.5t-68.5 -37t-87.5 -67t-69 -104t-31 -144.5zM242 1090 q0 -69 20.5 -124t55.5 -90t74.5 -56.5t86.5 -33.5l258 -65q9 3 24.5 9.5t54.5 33t68.5 61.5t54 98.5t24.5 139.5q0 93 -40.5 170t-126 125.5t-202.5 48.5q-161 0 -256.5 -91t-95.5 -226z" />
<glyph unicode="9" horiz-adv-x="1169" d="M125 983q0 214 117.5 338.5t306.5 124.5q233 0 355 -181.5t122 -514.5q0 -165 -23 -293t-65 -216t-105.5 -145t-140.5 -82.5t-174 -25.5q-62 0 -120.5 15t-97.5 36t-69.5 42.5t-44.5 36.5l-14 15l23 29q5 -6 14.5 -15t41.5 -32.5t67 -41.5t89.5 -33t110.5 -15 q241 0 354 176t113 534q-6 -8 -17 -21t-50.5 -46.5t-85.5 -59t-122.5 -46.5t-160.5 -21q-94 0 -169.5 25t-133.5 76.5t-89.5 138t-31.5 202.5zM166 983q0 -203 98 -304t285 -101q84 0 159.5 21t124 50.5t84.5 59t52 50.5l16 21q0 293 -113.5 461t-322.5 168 q-168 0 -275.5 -115t-107.5 -311z" />
<glyph unicode=":" horiz-adv-x="425" d="M160 41q0 22 15.5 37.5t37.5 15.5t37.5 -15.5t15.5 -37.5t-15.5 -37.5t-37.5 -15.5t-37.5 15.5t-15.5 37.5zM160 897q0 22 15.5 37.5t37.5 15.5t37.5 -15.5t15.5 -37.5t-15.5 -37.5t-37.5 -15.5t-37.5 15.5t-15.5 37.5z" />
<glyph unicode=";" horiz-adv-x="440" d="M160 -96q2 1 6 2t14.5 7.5t18 15t14 24t6.5 35.5q-21 0 -37 15t-16 38q0 22 15.5 37.5t37.5 15.5q28 0 44 -21t16 -53q0 -37 -10 -66.5t-24.5 -44.5t-29.5 -25t-25 -12l-10 -3zM166 897q0 22 15.5 37.5t37.5 15.5t37.5 -15.5t15.5 -37.5t-15.5 -37.5t-37.5 -15.5 t-37.5 15.5t-15.5 37.5z" />
<glyph unicode="&#x3c;" horiz-adv-x="827" d="M98 545v37l586 411v-41l-551 -389l551 -389v-41z" />
<glyph unicode="=" horiz-adv-x="1052" d="M168 360v37h717v-37h-717zM168 729v37h717v-37h-717z" />
<glyph unicode="&#x3e;" horiz-adv-x="827" d="M143 133v41l551 389l-551 389v41l586 -411v-37z" />
<glyph unicode="?" horiz-adv-x="872" d="M96 1118q0 147 95 237.5t239 90.5q87 0 155 -28t107.5 -75.5t59.5 -104t20 -118.5q0 -78 -20.5 -138t-54 -99.5t-73.5 -74t-79.5 -73t-73 -85.5t-54 -122t-20.5 -172h-37q0 100 20.5 177.5t54 126t73.5 87.5t79.5 73.5t73 72.5t54 95.5t20.5 131.5q0 125 -79.5 208 t-225.5 83q-131 0 -214 -81.5t-83 -217.5zM326 41q0 22 15.5 37.5t37.5 15.5t37.5 -15.5t15.5 -37.5t-15.5 -37.5t-37.5 -15.5t-37.5 15.5t-15.5 37.5z" />
<glyph unicode="@" horiz-adv-x="1673" d="M131 371q0 205 65 377.5t178 289.5t267 182.5t330 65.5q172 0 308 -70.5t212 -199t76 -293.5q0 -139 -40 -260t-103 -198.5t-136 -121t-143 -43.5q-105 0 -105 93q0 49 31 126q-9 -17 -21.5 -37t-41 -52.5t-61 -57t-81.5 -43t-102 -18.5q-123 0 -190.5 68.5t-67.5 228.5 q0 130 55.5 251t156.5 199t222 78q54 0 100.5 -14.5t73.5 -35t47 -40.5t27 -34l8 -15l29 104h41q-185 -628 -189 -700q-2 -31 17.5 -48.5t54.5 -17.5q65 0 132.5 42t123.5 116t91.5 187.5t35.5 242.5q0 229 -157.5 378.5t-403.5 149.5q-174 0 -324.5 -68.5t-255 -186 t-164 -280t-59.5 -345.5q0 -293 158 -452t424 -159q87 0 168.5 12t141.5 32t112 43.5t86.5 47t59.5 43.5t36 32l12 12l20 -29q-8 -9 -24 -24.5t-74 -54.5t-125.5 -69t-179 -54.5t-233.5 -24.5q-133 0 -244 39.5t-195.5 116.5t-132 202.5t-47.5 286.5zM543 408 q0 -136 58.5 -199.5t162.5 -63.5q60 0 114 23.5t90 57t65 77t44 77t23 62.5l84 312q-2 6 -7 16t-24.5 35t-44.5 44.5t-70 35.5t-98 16q-111 0 -203.5 -71t-143 -184t-50.5 -238z" />
<glyph unicode="A" horiz-adv-x="1286" d="M70 0l551 1434h45l551 -1434h-41l-181 471h-704l-180 -471h-41zM305 508h676l-338 885z" />
<glyph unicode="B" horiz-adv-x="1253" d="M205 0v1434h436q197 0 304.5 -90.5t107.5 -266.5q0 -80 -21 -143t-50.5 -98t-66.5 -58.5t-65 -31t-49 -7.5v-4q33 0 71.5 -8t87 -32t86.5 -61.5t64.5 -104t26.5 -152.5q0 -84 -28.5 -150.5t-76 -108.5t-113.5 -69t-135 -38t-147 -11h-432zM246 37h391q66 0 125.5 8 t122.5 30.5t108 59t74 99t29 143.5q0 92 -30 159.5t-84.5 106.5t-122.5 57.5t-152 18.5h-461v-682zM246 756h461q71 0 124.5 17t87.5 45t55 70t29.5 87.5t8.5 101.5q0 148 -92.5 234t-282.5 86h-391v-641z" />
<glyph unicode="C" horiz-adv-x="1277" d="M135 711q0 156 29.5 281.5t81 209t124 139.5t154.5 80.5t176 24.5q68 0 127.5 -13t102.5 -35.5t79 -51t59.5 -60t42 -63.5t28.5 -60.5t16 -51t8 -35.5l2 -13l-39 -10q-1 7 -3 20t-13 50t-27.5 70.5t-50 74.5t-76 70.5t-109.5 50t-147 20.5q-85 0 -159.5 -22t-142.5 -74.5 t-116.5 -131t-77 -199t-28.5 -271.5q0 -154 31 -275t82.5 -197t123.5 -125.5t147.5 -69t160.5 -19.5q81 0 155 23t121.5 55.5t83.5 64.5t52 55l16 23l25 -31q-6 -9 -17.5 -24.5t-53.5 -54.5t-90 -69t-127 -54.5t-165 -24.5q-98 0 -183 23t-160 76.5t-128 135.5t-84 206.5 t-31 281.5z" />
<glyph unicode="D" horiz-adv-x="1337" d="M205 0v1434h327q147 0 267.5 -43.5t211.5 -130t141 -227t50 -324.5q0 -348 -153 -528.5t-435 -180.5h-409zM246 37h368q259 0 403 167.5t144 504.5q0 147 -33.5 264t-91 195.5t-138 130.5t-171.5 75t-195 23h-286v-1360z" />
<glyph unicode="E" horiz-adv-x="1136" d="M205 0v1434h799v-37h-758v-662h676v-37h-676v-661h758v-37h-799z" />
<glyph unicode="F" horiz-adv-x="1097" d="M205 0v1434h799v-37h-758v-662h676v-37h-676v-698h-41z" />
<glyph unicode="G" horiz-adv-x="1314" d="M135 711q0 156 29.5 281.5t81 209t124 139.5t154.5 80.5t176 24.5q68 0 127.5 -13t102.5 -35.5t79 -51t59.5 -60t42 -63.5t28.5 -60.5t16 -51t8 -35.5l2 -13l-39 -10q-1 7 -3 20t-13 50t-27.5 70.5t-50 74.5t-76 70.5t-109.5 50t-147 20.5q-85 0 -159.5 -22t-142.5 -74.5 t-116.5 -131t-77 -199t-28.5 -271.5q0 -154 31.5 -275t82 -197t120 -125.5t141 -69t149.5 -19.5q221 0 332 130t111 380v114h-416v37h457v-151q0 -268 -121.5 -407.5t-362.5 -139.5q-91 0 -171.5 23t-153.5 77t-125.5 135.5t-83.5 206t-31 281.5z" />
<glyph unicode="H" horiz-adv-x="1372" d="M205 0v1434h41v-699h880v699h41v-1434h-41v698h-880v-698h-41z" />
<glyph unicode="I" horiz-adv-x="450" d="M205 0v1434h41v-1434h-41z" />
<glyph unicode="J" horiz-adv-x="888" d="M31 152l28 28q4 -6 12.5 -16.5t37 -37.5t60.5 -47t84 -37t107 -17q291 0 291 315v1094h41v-1086q0 -188 -88.5 -274t-243.5 -86q-62 0 -118.5 17t-93 41t-64.5 48t-40 41z" />
<glyph unicode="K" horiz-adv-x="1351" d="M205 0v1434h41v-725h389q58 0 117 24.5t118.5 80.5t105.5 137.5t74.5 206.5t28.5 276h41q0 -139 -24 -256.5t-62 -197.5t-89.5 -142t-103 -96.5t-106.5 -53.5q48 -13 93.5 -56t81.5 -101t71.5 -125.5t70 -132.5t69.5 -118t77 -85.5t86 -32.5h51v-37h-51q-60 0 -111.5 37 t-89.5 96.5t-74.5 131t-74 143t-78.5 131t-98 96.5t-123 37h-389v-672h-41z" />
<glyph unicode="L" horiz-adv-x="1071" d="M205 0v1434h41v-1397h798v-37h-839z" />
<glyph unicode="M" horiz-adv-x="1638" d="M205 0v1434h65l549 -1168l549 1168h66v-1434h-41v1393l-555 -1178h-37l-555 1178v-1393h-41z" />
<glyph unicode="N" horiz-adv-x="1372" d="M205 0v1434h63l858 -1397v1397h41v-1434h-63l-858 1397v-1397h-41z" />
<glyph unicode="O" d="M135 715q0 158 32.5 284.5t87 208.5t129.5 137t155.5 78t169.5 23t169.5 -23t155 -78t129 -137t87 -208.5t32.5 -284.5t-32.5 -284t-87 -207.5t-129 -136t-155 -77t-169.5 -22.5t-169.5 22.5t-155.5 77t-129.5 136t-87 207.5t-32.5 284zM176 715q0 -149 30 -268 t80.5 -196.5t120 -129.5t144.5 -74t158 -22t158 22t144 74t119.5 129.5t80.5 196.5t30 268t-30 268.5t-80.5 197.5t-119.5 130.5t-144 75t-158 22.5t-158 -22.5t-144.5 -75t-120 -130.5t-80.5 -197.5t-30 -268.5z" />
<glyph unicode="P" horiz-adv-x="1161" d="M205 0v1434h409q219 0 337 -107.5t118 -314.5q0 -206 -117 -308t-338 -102h-368v-602h-41zM246 639h368q414 0 414 373q0 183 -102.5 284t-311.5 101h-368v-758z" />
<glyph unicode="Q" d="M135 715q0 158 32.5 284.5t87 208.5t129.5 137t155.5 78t169.5 23t169.5 -23t155 -78t129 -137t87 -208.5t32.5 -284.5q0 -155 -31 -278.5t-83 -204.5t-124 -136t-150 -80t-165 -28q55 -189 162.5 -283t241.5 -94v-37q-157 0 -273.5 110t-169.5 304q-87 3 -165 27 t-150.5 79t-125 136t-83.5 205.5t-31 279.5zM176 715q0 -149 30 -268t80.5 -196.5t120 -129.5t144.5 -74t158 -22t158 22t144 74t119.5 129.5t80.5 196.5t30 268t-30 268.5t-80.5 197.5t-119.5 130.5t-144 75t-158 22.5t-158 -22.5t-144.5 -75t-120 -130.5t-80.5 -197.5 t-30 -268.5z" />
<glyph unicode="R" horiz-adv-x="1345" d="M205 0v1434h428q198 0 314 -99.5t116 -296.5q0 -155 -84 -250.5t-234 -123.5q48 -12 93 -53.5t79.5 -97.5t68 -121t67 -127.5t67.5 -113.5t77.5 -82.5t90.5 -31.5h47v-37h-49q-61 0 -113 36t-90 93.5t-73.5 126.5t-72.5 138.5t-77.5 127t-98.5 93.5t-126 36h-389v-651 h-41zM246 688h389q168 0 277.5 92.5t109.5 257.5q0 163 -102 261t-291 98h-383v-709z" />
<glyph unicode="S" horiz-adv-x="1222" d="M104 246l31 24q5 -10 15.5 -26.5t51 -58.5t91.5 -74.5t140.5 -59t193.5 -26.5q206 0 325 92.5t119 249.5q0 76 -27.5 133t-65 89.5t-106.5 57t-120.5 35.5t-138.5 25q-68 11 -103 17.5t-95.5 22t-93 31.5t-74.5 44t-63.5 62.5t-37 84t-15.5 110.5q0 158 123.5 262.5 t345.5 104.5q79 0 148.5 -14t117 -37t86 -50.5t61.5 -55t38.5 -50.5t21.5 -37l6 -14l-35 -19q-4 10 -12 26t-42.5 57.5t-80 73t-128 57.5t-181.5 26q-106 0 -190 -27.5t-134.5 -74.5t-77 -104.5t-26.5 -121.5q0 -76 27.5 -132.5t64 -88.5t107 -56.5t118.5 -34.5t138 -25 q80 -13 121 -21.5t109 -27t104.5 -43.5t76.5 -63t57 -94t17 -128q0 -167 -129.5 -273t-355.5 -106q-81 0 -154 14t-124.5 37t-94.5 50.5t-70 55t-46 50.5t-26 37z" />
<glyph unicode="T" horiz-adv-x="1163" d="M29 1397v37h1106v-37h-533v-1397h-41v1397h-532z" />
<glyph unicode="U" horiz-adv-x="1388" d="M193 582v852h40v-852q0 -126 22.5 -222.5t62 -159.5t98.5 -102.5t126.5 -56t151.5 -16.5t151.5 16.5t126.5 56t98.5 102.5t62 159.5t22.5 222.5v852h41v-852q0 -135 -24 -238t-66.5 -170t-106.5 -109t-138 -59.5t-167 -17.5t-166.5 17.5t-137.5 59.5t-106.5 109 t-66.5 170t-24 238z" />
<glyph unicode="V" horiz-adv-x="1257" d="M82 1434h45l502 -1393l501 1393h46l-525 -1434h-45z" />
<glyph unicode="W" horiz-adv-x="1945" d="M92 1434h45l410 -1393l403 1393h45l404 -1393l409 1393h45l-430 -1434h-49l-401 1372l-402 -1372h-49z" />
<glyph unicode="X" horiz-adv-x="1142" d="M61 0l486 715l-486 719h45l465 -689l465 689h45l-485 -719l485 -715h-45l-465 684l-465 -684h-45z" />
<glyph unicode="Y" horiz-adv-x="1212" d="M76 1434h45l485 -750l486 750h45l-510 -787v-647h-41v647z" />
<glyph unicode="Z" horiz-adv-x="1165" d="M86 0v37l944 1360h-944v37h993v-37l-944 -1360h944v-37h-993z" />
<glyph unicode="[" horiz-adv-x="489" d="M188 -500v1987h222v-35h-185v-1917h185v-35h-222z" />
<glyph unicode="\" horiz-adv-x="765" d="M72 1446h41l579 -1905h-41z" />
<glyph unicode="]" horiz-adv-x="489" d="M80 -465h184v1917h-184v35h221v-1987h-221v35z" />
<glyph unicode="^" horiz-adv-x="751" d="M141 1092l207 362h55l207 -362h-45l-190 319l-189 -319h-45z" />
<glyph unicode="_" horiz-adv-x="806" d="M76 0h655v-37h-655v37z" />
<glyph unicode="`" horiz-adv-x="466" d="M113 1454h55l176 -291h-45z" />
<glyph unicode="a" horiz-adv-x="997" d="M104 231q0 244 351 244h336v193q0 153 -75 224t-224 71q-145 0 -224.5 -67.5t-79.5 -176.5q0 -30 6 -56t12 -37l5 -10h-37q-22 33 -22 109q0 118 91.5 196t248.5 78q335 0 335 -331v-512q0 -63 19 -93t69 -30v-31q-6 -2 -20 -2q-44 0 -74 35.5t-30 109.5v131 q-15 -38 -34 -73.5t-52 -76t-72.5 -70t-97 -49t-123.5 -19.5q-149 0 -228.5 62t-79.5 181zM145 233q0 -99 71 -154.5t196 -55.5q61 0 115 19t91 49t68 66.5t50 73t32 66.5t18 49l5 19v75h-336q-148 0 -229 -54t-81 -153z" />
<glyph unicode="b" horiz-adv-x="1073" d="M172 0v1487h37v-711q2 5 5.5 13t17 31t30 44t45.5 47t62.5 44.5t81.5 31t102 12.5q84 0 154 -27.5t126 -84.5t87.5 -154.5t31.5 -228.5q0 -135 -31.5 -236.5t-87 -161.5t-125.5 -89t-153 -29q-56 0 -105 11t-83 28.5t-62 39t-45.5 43t-29.5 39t-16 28.5l-5 11v-188h-37z M209 268q3 -10 9 -26.5t32.5 -58.5t61 -74.5t99.5 -59t144 -26.5q163 0 261.5 121.5t98.5 359.5q0 120 -29 210.5t-80 144t-114.5 80t-138.5 26.5q-54 0 -102.5 -15t-82.5 -39t-62 -53.5t-45.5 -58.5t-29.5 -53t-17 -39l-5 -15v-424z" />
<glyph unicode="c" horiz-adv-x="958" d="M121 496q0 136 31.5 236t88 157t127 83.5t156.5 26.5q84 0 146.5 -23.5t97.5 -64t51.5 -88t16.5 -102.5q0 -23 -2 -44.5t-4 -31.5l-3 -10h-36q8 45 8 86q0 46 -14 86.5t-44 77.5t-85.5 58.5t-131.5 21.5q-165 0 -265.5 -115t-100.5 -354q0 -94 17.5 -170t47.5 -126 t66.5 -86t79.5 -55t81 -27.5t76 -8.5q56 0 107 15.5t83 37.5t56 44.5t34 37.5l11 16l27 -24q-3 -7 -10.5 -17.5t-34.5 -38.5t-60 -49.5t-90.5 -39t-122.5 -17.5q-57 0 -109.5 13t-108 48t-95.5 89.5t-66 146.5t-26 211z" />
<glyph unicode="d" horiz-adv-x="1083" d="M121 487q0 133 31 233.5t85.5 160t124.5 89t154 29.5q73 0 136 -19.5t100.5 -47.5t64 -56t37.5 -48l10 -19v678h37v-1340q0 -58 19.5 -85t68.5 -27v-35q-8 -2 -20 -2q-45 0 -75 36t-30 113v82q-3 -10 -9 -26t-33 -57.5t-62.5 -73.5t-100.5 -58t-143 -26q-80 0 -149 28.5 t-125 86t-88.5 156t-32.5 228.5zM158 487q0 -225 101 -344.5t257 -119.5q60 0 111.5 16t86 41.5t62.5 56t43.5 61t26.5 56t14 41.5l4 16v422q-2 5 -5 13.5t-16.5 32.5t-30 46t-45.5 48.5t-63 46t-83 32.5t-105 13q-155 0 -256.5 -123t-101.5 -355z" />
<glyph unicode="e" horiz-adv-x="968" d="M121 496q0 137 30 236.5t84.5 156.5t123.5 83.5t155 26.5q93 0 160 -34t104.5 -95t54.5 -135.5t17 -165.5v-34h-692v-39q0 -94 17.5 -170t47.5 -126t66.5 -86t79.5 -55t81 -27.5t76 -8.5q56 0 107 15.5t83 37.5t56 44.5t34 37.5l11 16l27 -24q-3 -7 -10 -17.5t-34 -38.5 t-60 -49.5t-90.5 -39t-123.5 -17.5q-57 0 -109.5 13t-108 48t-95.5 89.5t-66 146.5t-26 211zM160 569h653q0 67 -9 123.5t-30.5 107.5t-55 87t-85.5 57t-119 21q-150 0 -245 -97t-109 -299z" />
<glyph unicode="f" horiz-adv-x="702" d="M70 952v35h143v225q0 125 68.5 201t189.5 76q50 0 93 -11.5t68.5 -28.5t44 -33.5t25.5 -27.5l7 -12l-23 -26q-2 4 -7 11t-23.5 25t-41 32t-61.5 25t-84 11q-98 0 -158.5 -64.5t-60.5 -177.5v-225h409v-35h-409v-952h-37v952h-143z" />
<glyph unicode="g" horiz-adv-x="1019" d="M86 -213q0 59 19.5 107t44.5 75t58 46.5t51 26t32 9.5q-15 2 -34.5 7.5t-52 21t-54 49t-21.5 80.5q0 64 38 103t103 50q-5 4 -13.5 11t-30.5 32.5t-39 55t-30.5 78.5t-13.5 102q0 160 104.5 259t258.5 99q54 0 103 -12.5t71 -25.5l22 -13q122 0 171 28.5t49 98.5l36 -4 q0 -78 -50 -115t-156 -43q5 -4 13 -10.5t28.5 -31.5t36.5 -54t29 -76.5t13 -99.5q0 -160 -105.5 -258t-260.5 -98q-52 0 -101 12.5t-73 25.5l-23 13q-56 0 -99.5 -33.5t-43.5 -93.5q0 -41 19.5 -68t59 -41t84.5 -19t109 -5h166q153 0 246.5 -71.5t93.5 -201.5 q0 -152 -110.5 -230.5t-327.5 -78.5q-213 0 -316.5 77t-103.5 216zM123 -213q0 -125 96.5 -191.5t286.5 -66.5q197 0 299 70t102 204q0 113 -83.5 175.5t-219.5 62.5h-176q-138 -2 -221.5 -68.5t-83.5 -185.5zM180 641q0 -144 93.5 -233t232.5 -89t234.5 89.5t95.5 232.5 t-96 233.5t-234 90.5t-232 -89.5t-94 -234.5z" />
<glyph unicode="h" horiz-adv-x="1060" d="M172 0v1487h37v-772q28 122 118.5 203t223.5 81q90 0 157 -29.5t106.5 -82t59 -119t19.5 -147.5v-474q0 -58 19.5 -85t68.5 -27v-35q-8 -2 -20 -2q-45 0 -75 36t-30 113v474q0 149 -78 246.5t-227 97.5q-82 0 -149.5 -38.5t-108 -99.5t-62.5 -130t-22 -136v-561h-37z" />
<glyph unicode="i" horiz-adv-x="387" d="M135 1276q0 22 15.5 37.5t37.5 15.5t38 -15.5t16 -37.5t-16 -37.5t-38 -15.5t-37.5 15.5t-15.5 37.5zM168 147v840h37v-840q0 -58 19.5 -85t68.5 -27v-35q-9 -2 -21 -2q-45 0 -74.5 36t-29.5 113z" />
<glyph unicode="j" horiz-adv-x="380" d="M-205 -459l12 33q6 -5 18 -12.5t51 -20t81 -12.5q107 0 161 61.5t54 198.5v1198h37v-1198q0 -149 -62.5 -222t-189.5 -73q-47 0 -87.5 12t-57.5 24zM147 1286q0 19 12 31t31 12t31 -12t12 -31t-12 -31t-31 -12t-31 12t-12 31z" />
<glyph unicode="k" horiz-adv-x="1046" d="M172 0v1487h37v-920h264q158 0 255 112.5t97 307.5h37q0 -72 -14 -137t-44.5 -126.5t-86 -107.5t-131.5 -67q53 -15 92.5 -51t62.5 -82.5t41.5 -99t35.5 -102t38 -90t55 -65t80 -24.5h19v-35q-11 -2 -23 -2q-59 0 -100.5 29.5t-64.5 76.5t-41.5 104t-40 114t-51.5 104 t-84 76.5t-130 29.5h-266v-532h-37z" />
<glyph unicode="l" horiz-adv-x="395" d="M172 147v1340h37v-1340q0 -58 19.5 -85t68.5 -27v-35q-9 -2 -21 -2q-45 0 -74.5 36t-29.5 113z" />
<glyph unicode="m" horiz-adv-x="1740" d="M96 952v35q9 2 23 2q43 0 72.5 -35.5t29.5 -109.5v-129q28 124 114.5 204t223.5 80q153 0 234 -82t100 -221q19 121 110.5 212t231.5 91q89 0 156 -29t106 -82t57.5 -119.5t18.5 -147.5v-474q0 -58 19.5 -85t68.5 -27v-35q-9 -2 -21 -2q-45 0 -74.5 36t-29.5 113v474 q0 71 -18 132.5t-53.5 109t-94.5 75t-135 27.5q-103 0 -182 -63t-117.5 -156t-38.5 -195v-404q0 -58 19.5 -85t68.5 -27v-35q-8 -2 -20 -2q-45 0 -75 36t-30 113v474q0 71 -18 132.5t-53.5 109t-94.5 75t-135 27.5q-66 0 -122.5 -25.5t-95.5 -67t-66.5 -95t-40.5 -108.5 t-13 -108v-561h-37v844q0 54 -19 81t-69 27z" />
<glyph unicode="n" horiz-adv-x="1073" d="M96 952v35q9 2 23 2q43 0 72.5 -35.5t29.5 -109.5v-129q28 124 116.5 204t225.5 80q90 0 157 -29.5t106.5 -82t59 -119t19.5 -147.5v-474q0 -58 19.5 -85t68.5 -27v-35q-8 -2 -20 -2q-45 0 -75 36t-30 113v474q0 149 -78 246.5t-227 97.5q-67 0 -124 -25.5t-96.5 -67 t-67.5 -95t-41 -108.5t-13 -108v-561h-37v844q0 54 -19 81t-69 27z" />
<glyph unicode="o" horiz-adv-x="1052" d="M121 494q0 247 112.5 376t292.5 129t293 -129t113 -376t-113 -376.5t-293 -129.5t-292.5 129.5t-112.5 376.5zM158 494q0 -119 30 -211.5t82 -148t117 -83.5t139 -28t139 28t117.5 83.5t82.5 148t30 211.5t-30 211.5t-82.5 148t-117.5 83.5t-139 28t-139 -28t-117 -83.5 t-82 -148t-30 -211.5z" />
<glyph unicode="p" horiz-adv-x="1085" d="M96 952v35q9 2 23 2q43 0 72.5 -35.5t29.5 -109.5v-68q2 5 5.5 13t17 31t30 44t45.5 47t62.5 44.5t81.5 31t102 12.5q84 0 154.5 -27.5t126.5 -84.5t87.5 -154.5t31.5 -228.5q0 -135 -31.5 -236.5t-87.5 -161.5t-126 -89t-153 -29q-56 0 -105 11t-83 28.5t-62 39 t-45.5 43t-29.5 39t-16 28.5l-5 11v-688h-37v1344q0 54 -19 81t-69 27zM221 268q3 -10 9 -26.5t32.5 -58.5t61 -74.5t99.5 -59t144 -26.5q163 0 262 121.5t99 359.5q0 120 -29 210.5t-80.5 144t-115 80t-138.5 26.5q-54 0 -102.5 -15t-82.5 -39t-62 -53.5t-45.5 -58.5 t-29.5 -53t-17 -39l-5 -15v-424z" />
<glyph unicode="q" horiz-adv-x="1073" d="M121 487q0 133 31 233.5t85.5 160t124.5 89t154 29.5q73 0 136 -19.5t100.5 -47.5t64 -56t37.5 -48l10 -19v178h37v-1487h-37v729q-1 -5 -4 -13.5t-15.5 -33.5t-28.5 -48t-44.5 -51t-62.5 -48t-84 -33.5t-107 -13.5q-80 0 -149 28.5t-126 86t-89.5 156.5t-32.5 228z M158 487q0 -225 102 -344.5t258 -119.5q59 0 110 16t85.5 41.5t62 56.5t43.5 62t26.5 56.5t14.5 41.5l4 16v420q-2 5 -5 13.5t-16.5 32.5t-30 46t-46 48.5t-63.5 46t-83 32.5t-104 13q-160 0 -259 -122t-99 -356z" />
<glyph unicode="r" horiz-adv-x="696" d="M96 952v35q9 2 23 2q43 0 72.5 -35.5t29.5 -109.5v-129q28 123 114.5 203.5t217.5 80.5q28 0 53 -3.5t36 -7.5l11 -3l-16 -35q-31 15 -84 15q-79 0 -144.5 -38.5t-105 -99.5t-61 -130t-21.5 -136v-561h-37v844q0 54 -19 81t-69 27z" />
<glyph unicode="s" horiz-adv-x="917" d="M96 184l29 23q4 -7 12 -19.5t38.5 -44.5t66.5 -56t98 -44t131 -20q144 0 223.5 59t79.5 162q0 68 -36 111t-93 62t-126 30.5t-138.5 25.5t-126.5 37.5t-93 76.5t-36 134q0 119 82 198.5t246 79.5q72 0 130 -16t94.5 -42t60.5 -61.5t34 -71.5t10 -75q0 -24 -3.5 -46.5 t-6.5 -32.5l-4 -11h-37q14 35 14 90q0 97 -72 164.5t-220 67.5q-140 0 -215.5 -67.5t-75.5 -176.5q0 -74 36 -120.5t93 -66.5t126 -31.5t138.5 -24t126.5 -34t93 -72t36 -128.5q0 -121 -88 -188.5t-252 -67.5q-77 0 -143.5 20t-107.5 49t-70.5 58t-41.5 49z" />
<glyph unicode="t" horiz-adv-x="768" d="M74 952v35h164v307h36v-307h431v-35h-431v-671q0 -130 54.5 -194t175.5 -64q39 0 75.5 11t61 27t43.5 32t28 27l9 11l20 -29q-3 -5 -9.5 -12.5t-29.5 -27t-48 -34.5t-66 -27.5t-84 -12.5q-137 0 -201.5 72t-64.5 221v671h-164z" />
<glyph unicode="u" horiz-adv-x="1054" d="M164 319v668h37v-668q0 -296 276 -296q65 0 123.5 24t100.5 62.5t73 86t46.5 95.5t15.5 90v606h36v-837q0 -59 19.5 -87t69.5 -28v-35q-7 -2 -21 -2q-44 0 -74 36t-30 116v98q-44 -114 -137 -187t-222 -73q-313 0 -313 331z" />
<glyph unicode="v" horiz-adv-x="966" d="M84 987h41l358 -952l359 952h41l-371 -987h-57z" />
<glyph unicode="w" horiz-adv-x="1437" d="M94 987h41l287 -952l285 932h24l285 -932l287 952h40l-299 -987h-57l-268 874l-268 -874h-58z" />
<glyph unicode="x" horiz-adv-x="899" d="M74 0l348 496l-348 491h47l328 -463l329 463h47l-350 -491l350 -496h-47l-329 467l-328 -467h-47z" />
<glyph unicode="y" horiz-adv-x="968" d="M80 -489l6 36q45 -18 92 -18q68 0 104 35t66 114l115 306l-377 1003h41l358 -952l359 952h41l-496 -1309q-17 -43 -32.5 -72.5t-40 -57t-59 -41t-79.5 -13.5q-26 0 -50.5 4t-35.5 8z" />
<glyph unicode="z" horiz-adv-x="878" d="M88 0v35l655 917h-655v35h700v-35l-655 -917h655v-35h-700z" />
<glyph unicode="{" horiz-adv-x="557" d="M82 477v33h20q52 0 91.5 34.5t39.5 102.5v574q0 75 20.5 129t57 83t77.5 41.5t91 12.5v-37q-100 0 -154.5 -57t-54.5 -172v-574q0 -41 -11.5 -72t-29.5 -47.5t-32.5 -24t-26.5 -9.5q100 -35 100 -154v-573q0 -117 54.5 -173.5t154.5 -56.5v-37q-49 0 -90.5 13t-78 42 t-57 83.5t-20.5 128.5v573q0 68 -39.5 102.5t-91.5 34.5h-20z" />
<glyph unicode="|" horiz-adv-x="417" d="M188 -520v2027h41v-2027h-41z" />
<glyph unicode="}" horiz-adv-x="557" d="M78 -463q100 0 154.5 56.5t54.5 173.5v573q0 119 100 154q-12 2 -26 9t-32 23t-30 47.5t-12 73.5v574q0 115 -54.5 172t-154.5 57v37q50 0 91 -12.5t77.5 -41.5t57 -83t20.5 -129v-574q0 -68 39.5 -102.5t91.5 -34.5h20v-33h-20q-52 0 -91.5 -34.5t-39.5 -102.5v-573 q0 -74 -20.5 -128.5t-57 -83.5t-78 -42t-90.5 -13v37z" />
<glyph unicode="~" horiz-adv-x="815" d="M168 532q0 48 29.5 78.5t83.5 30.5q50 0 130 -40t130 -40q28 0 45.5 13.5t17.5 39.5q0 16 -3 29.5t-6 18.5l-3 6h43q12 -21 12 -54q0 -43 -26.5 -68.5t-79.5 -25.5q-50 0 -97 20t-88 40t-75 20q-32 0 -52 -18t-20 -50q0 -15 4 -29.5t8 -22.5l4 -7h-43q-14 24 -14 59z" />
<glyph unicode="&#xa1;" horiz-adv-x="401" d="M147 946q0 22 16 37.5t38 15.5t37.5 -15.5t15.5 -37.5t-15.5 -37.5t-37.5 -15.5t-38 15.5t-16 37.5zM180 -500l4 1131h33l4 -1131h-41z" />
<glyph unicode="&#xa2;" horiz-adv-x="983" d="M135 496q0 259 100.5 386.5t270.5 135.5v158h37v-158q64 0 119 -18.5t89 -45.5t58.5 -54t34.5 -46l10 -18l-29 -25q-3 7 -8.5 18.5t-29 40.5t-52.5 51.5t-80.5 41.5t-111.5 20v-960q72 1 129 23t86.5 53t48.5 61.5t24 51.5l5 21l32 -14q-2 -9 -6.5 -24.5t-27.5 -55 t-55 -69.5t-94.5 -55.5t-141.5 -26.5v-199h-37v199q-69 5 -132 35t-118 87.5t-88 157t-33 228.5zM172 496q0 -98 21 -178.5t54.5 -132t78.5 -88t89.5 -53.5t90.5 -21v960q-74 -4 -133 -32.5t-105 -84.5t-71 -150t-25 -220z" />
<glyph unicode="&#xa3;" horiz-adv-x="1159" d="M115 539v36h245q-11 18 -45.5 67.5t-52.5 80t-42 80t-35 103t-11 112.5q0 187 109.5 307.5t308.5 120.5q73 0 137 -11t108 -28t80.5 -38t58.5 -42.5t37 -38.5t21 -28l6 -11l-34 -18q-4 7 -12 19t-41 43t-75 54.5t-118.5 42.5t-167.5 19q-95 0 -168.5 -32t-117.5 -87 t-66.5 -123t-24.5 -147q-1 -58 10.5 -111.5t35 -101t45 -82t53.5 -80t47 -70.5h458v-36h-438q33 -64 33 -121q0 -67 -20 -130.5t-46 -104.5t-59 -76.5t-50.5 -49t-27.5 -20.5h733v-37h-801v37q9 6 24.5 16.5t55.5 47t70 77.5t55 106t25 134q0 55 -37 121h-266z" />
<glyph unicode="&#xa4;" horiz-adv-x="1196" d="M166 432l168 170q-52 77 -49 172q0 93 49 170l-168 170l24 25l164 -166q44 54 108 85.5t136 31.5q145 0 244 -117l164 166l24 -25l-168 -170q51 -84 51 -172q0 -96 -51 -172l168 -168l-24 -24l-164 163q-43 -53 -106.5 -82.5t-135.5 -29.5q-74 -1 -138.5 29t-107.5 85 l-164 -165zM319 774q0 -117 81.5 -198.5t199.5 -81.5q116 -2 198 80.5t81 197.5q0 118 -82 200.5t-199 82.5q-115 0 -197 -82.5t-82 -198.5z" />
<glyph unicode="&#xa5;" horiz-adv-x="1183" d="M76 1395h43l473 -729l473 729h43l-367 -566h271v-36h-293l-107 -164v-45h338v-37h-338v-547h-41v547h-338v37h338v45l-106 164h-293v36h268z" />
<glyph unicode="&#xa6;" horiz-adv-x="421" d="M190 401h41v-921h-41v921zM190 725v782h41v-782h-41z" />
<glyph unicode="&#xa7;" horiz-adv-x="1269" d="M127 -242l31 25q5 -10 15 -26.5t51 -59t91.5 -75t140 -59t193.5 -26.5q85 0 161.5 19t141.5 57t103.5 105t38.5 155q0 78 -29.5 136.5t-61.5 90t-110.5 58.5t-117.5 35t-141 25q-95 16 -144 26.5t-125 37.5t-113.5 62.5t-67.5 99t-30 148.5q0 22 3 43t7.5 38.5t11.5 34.5 t14 30t15.5 25.5t16 21.5t15 17t12 12.5t9.5 8.5l4 4q-4 2 -13 8.5t-26.5 27t-32 47t-25.5 71.5t-11 98q0 168 129 267.5t342 99.5q79 0 148 -14t116 -37t86 -50.5t61.5 -55t38 -50.5t21.5 -37l6 -14l-35 -19q-4 10 -12 26t-43 57.5t-80 73t-127 57.5t-180 26 q-192 0 -311 -88.5t-119 -241.5q0 -76 28 -132.5t65 -89t107 -57t121 -35t138 -25.5q69 -11 103.5 -17.5t95 -22t92.5 -31.5t74.5 -43.5t63.5 -61.5t36.5 -82.5t15.5 -108.5q0 -45 -10 -87.5t-24.5 -71t-29.5 -50t-25 -31.5l-10 -10q4 -3 10.5 -9t24 -28.5t30.5 -49 t23.5 -70.5t10.5 -93q0 -171 -136 -272t-350 -101q-81 0 -153.5 14t-124 37t-94.5 50.5t-70 55t-45.5 50.5t-26.5 37zM195 592q0 -84 30.5 -144t84 -93.5t119.5 -54.5t145 -34t152.5 -25t150 -35t129.5 -56q4 3 9.5 9.5t21 28.5t27 46t21 62t9.5 77q0 80 -30 137.5t-83 91 t-118 54.5t-143 35t-150 26t-147 33.5t-126 52.5q-4 -3 -11 -8.5t-24.5 -25t-31 -41.5t-24.5 -59t-11 -77z" />
<glyph unicode="&#xa8;" horiz-adv-x="632" d="M113 1296q0 22 15.5 38t37.5 16t37.5 -16t15.5 -38t-15.5 -37.5t-37.5 -15.5t-37.5 15.5t-15.5 37.5zM414 1296q0 22 15.5 38t37.5 16t37.5 -16t15.5 -38t-15.5 -37.5t-37.5 -15.5t-37.5 15.5t-15.5 37.5z" />
<glyph unicode="&#xa9;" horiz-adv-x="1771" d="M131 743q0 225 95 397t266.5 265.5t392.5 93.5t392.5 -93.5t267 -266t95.5 -396.5q0 -225 -94.5 -396.5t-265.5 -265t-395 -93.5q-223 0 -394.5 93.5t-265.5 265t-94 396.5zM172 743q0 -211 89 -374.5t251 -253.5t373 -90q210 0 373 91t252 254.5t89 372.5t-90 372.5 t-253 255t-371 91.5q-209 0 -371 -90.5t-252 -254t-90 -374.5zM463 721q0 151 34.5 262.5t95 173.5t131.5 90.5t155 28.5q63 0 116.5 -15t88.5 -38.5t62.5 -52.5t42 -58t24 -52.5t11.5 -38.5l3 -15l-37 -9q-1 10 -4.5 26.5t-24 58.5t-50.5 74t-91.5 58.5t-140.5 26.5 q-58 0 -110.5 -15.5t-102.5 -53t-86 -95.5t-58 -149t-22 -207q0 -108 26 -193t65.5 -136t92.5 -84t101.5 -45.5t97.5 -12.5q72 0 132.5 13t96 31t61 36.5t35.5 31.5l9 13l24 -23q-4 -6 -11.5 -15t-37 -32.5t-66.5 -41.5t-102 -33t-141 -15q-55 0 -109.5 14t-111.5 50.5 t-100.5 91.5t-71 145.5t-27.5 204.5z" />
<glyph unicode="&#xaa;" horiz-adv-x="718" d="M133 1014q0 135 203 135h162v96q0 82 -37.5 122t-116.5 40q-69 0 -109 -32t-40 -83q0 -17 2 -30t4 -17l2 -4h-35q-8 12 -8 51q0 60 48 103t136 43q191 0 191 -193v-278q0 -34 10 -45t39 -11v-32q-5 -2 -11 -2q-75 0 -75 84v26q-44 -115 -191 -115q-77 0 -125.5 36 t-48.5 106zM168 1014q0 -55 38 -83t101 -28q94 0 142.5 58.5t48.5 130.5v26h-162q-168 0 -168 -104z" />
<glyph unicode="&#xab;" horiz-adv-x="798" d="M106 522v37l256 266l25 -28l-248 -256l248 -256l-25 -29zM365 522v37l256 266l24 -28l-248 -256l248 -256l-24 -29z" />
<glyph unicode="&#xac;" horiz-adv-x="909" d="M199 545v37h542v-260h-41v223h-501z" />
<glyph unicode="&#xad;" horiz-adv-x="821" d="M160 545v37h502v-37h-502z" />
<glyph unicode="&#xae;" horiz-adv-x="1771" d="M131 743q0 225 95 397t266.5 265.5t392.5 93.5t392.5 -93.5t267 -266t95.5 -396.5q0 -225 -94.5 -396.5t-265.5 -265t-395 -93.5q-223 0 -394.5 93.5t-265.5 265t-94 396.5zM172 743q0 -211 89 -374.5t251 -253.5t373 -90q210 0 373 91t252 254.5t89 372.5t-90 372.5 t-253 255t-371 91.5q-209 0 -371 -90.5t-252 -254t-90 -374.5zM545 240v1005h344q138 0 216.5 -72t78.5 -210q0 -67 -21 -118t-50.5 -77t-59.5 -42t-51 -20l-21 -4q43 -18 82 -69t67.5 -110t57 -115.5t64.5 -94t77 -37.5h35v-36h-35q-46 0 -86.5 33.5t-67.5 83.5t-58.5 109 t-60 109t-71.5 83.5t-94 33.5h-309v-452h-37zM582 727h309q258 0 258 236q0 247 -258 247h-309v-483z" />
<glyph unicode="&#xaf;" horiz-adv-x="696" d="M123 1268v37h450v-37h-450z" />
<glyph unicode="&#xb0;" horiz-adv-x="718" d="M125 1202q0 97 68.5 166.5t164.5 69.5q97 0 166.5 -69.5t69.5 -166.5q0 -96 -69.5 -164.5t-166.5 -68.5t-165 68t-68 165zM156 1202q0 -85 58.5 -144t143.5 -59t145 59t60 144t-60 145t-145 60q-84 0 -143 -60t-59 -145z" />
<glyph unicode="&#xb1;" horiz-adv-x="987" d="M166 0v37h655v-37h-655zM166 545v37h307v340h41v-340h307v-37h-307v-338h-41v338h-307z" />
<glyph unicode="&#xb2;" horiz-adv-x="491" d="M82 1010v37q0 57 30 97t72 63t84.5 45.5t72.5 62t30 96.5q0 63 -35.5 98t-91.5 35q-32 0 -57 -11t-37 -27t-20 -32t-10 -27l-1 -11l-35 14q1 5 3 13.5t13 30t26.5 38t47 30t70.5 13.5q79 0 120.5 -45t41.5 -119q0 -52 -21.5 -92t-53.5 -62.5t-69.5 -45t-69.5 -41.5 t-53.5 -50.5t-21.5 -72.5v-7h293v-30h-328z" />
<glyph unicode="&#xb3;" horiz-adv-x="514" d="M74 1104l24 14q2 -3 5 -8.5t16 -20t28 -25t41 -19.5t56 -9q68 0 110.5 33t42.5 88q0 45 -24.5 74t-54 39t-62.5 10h-37v31h37q42 0 82.5 33t40.5 92q0 45 -35.5 76.5t-97.5 31.5q-41 0 -72.5 -18t-43.5 -36l-11 -17l-27 16q2 3 5 9t15.5 21t28.5 26t44 20.5t61 9.5 q85 0 126.5 -40.5t41.5 -98.5q0 -65 -32 -99t-60 -39q110 -35 110 -141q0 -70 -53 -110.5t-135 -40.5q-37 0 -68.5 10t-49.5 24.5t-30.5 29t-17.5 24.5z" />
<glyph unicode="&#xb4;" horiz-adv-x="466" d="M123 1163l176 291h55l-186 -291h-45z" />
<glyph unicode="&#xb5;" horiz-adv-x="1032" d="M182 -500v1487h37v-668q0 -296 277 -296q80 0 150 36.5t114 91.5t69 116t25 114v606h37v-987h-37v248q-44 -115 -137 -187.5t-221 -72.5q-207 0 -277 143v-631h-37z" />
<glyph unicode="&#xb6;" horiz-adv-x="1105" d="M94 1022q0 186 105.5 299t300.5 113h401v-1434h-37v1399h-184v-1399h-37v614h-143q-196 0 -301 111.5t-105 296.5z" />
<glyph unicode="&#xb7;" horiz-adv-x="425" d="M160 727q0 22 15.5 37.5t37.5 15.5t37.5 -15.5t15.5 -37.5t-15.5 -37.5t-37.5 -15.5t-37.5 15.5t-15.5 37.5z" />
<glyph unicode="&#xb8;" horiz-adv-x="518" d="M123 -297l16 33q5 -5 13.5 -11.5t36.5 -18t57 -11.5q51 0 79.5 23t28.5 63q0 41 -37 70.5t-120 29.5l47 121h41l-35 -90q58 -3 101.5 -37.5t43.5 -93.5q0 -55 -39.5 -89t-111.5 -34q-36 0 -66.5 11t-42.5 23z" />
<glyph unicode="&#xb9;" horiz-adv-x="358" d="M55 1411q63 0 108 50t50 106h37v-559h-37v473q-10 -34 -54 -66.5t-96 -32.5z" />
<glyph unicode="&#xba;" horiz-adv-x="720" d="M131 1155q0 139 63.5 211t165.5 72t166 -72t64 -211t-64 -211t-166 -72t-165.5 72t-63.5 211zM166 1155q0 -126 55.5 -189t138.5 -63t139 64.5t56 187.5t-56.5 187.5t-138.5 64.5t-138 -63.5t-56 -188.5z" />
<glyph unicode="&#xbb;" horiz-adv-x="798" d="M154 285l247 256l-247 256l24 28l256 -266v-37l-256 -266zM412 285l247 256l-247 256l24 28l256 -266v-37l-256 -266z" />
<glyph unicode="&#xbc;" horiz-adv-x="937" d="M84 1278q63 0 108 50t50 106h37v-560h-37v474q-10 -34 -54 -66.5t-96 -32.5zM207 0l434 1434h39l-434 -1434h-39zM463 137v35l201 387h43l-203 -391h237v151h37v-151h80v-31h-80v-137h-37v137h-278z" />
<glyph unicode="&#xbd;" horiz-adv-x="950" d="M84 1278q63 0 108 50t50 106h37v-560h-37v474q-10 -34 -54 -66.5t-96 -32.5zM207 0l434 1434h39l-434 -1434h-39zM518 0v37q0 57 30 97t72 63t84.5 45.5t72.5 62t30 96.5q0 63 -35.5 98.5t-91.5 35.5q-32 0 -57 -11t-37 -27.5t-20 -32.5t-10 -27l-1 -11l-35 14 q1 5 3 13.5t13 30t26.5 38t47 30t70.5 13.5q79 0 120.5 -45t41.5 -119q0 -52 -21.5 -92t-53.5 -62.5t-69.5 -45t-69.5 -41.5t-53.5 -50.5t-21.5 -72.5v-6h293v-31h-328z" />
<glyph unicode="&#xbe;" horiz-adv-x="1058" d="M102 967l25 14q2 -3 5 -8.5t15.5 -20t27.5 -25t41 -19.5t56 -9q68 0 111 33t43 88q0 45 -24.5 74t-54 39t-62.5 10h-37v31h37q43 0 83 32.5t40 91.5q0 45 -36 77t-98 32q-41 0 -72.5 -18t-43.5 -36l-11 -18l-26 17q1 3 4.5 9t16 21t28 26t43.5 20.5t61 9.5 q85 0 126.5 -41t41.5 -99q0 -65 -31.5 -98.5t-60.5 -38.5q111 -36 111 -141q0 -70 -53.5 -111t-135.5 -41q-37 0 -68.5 10t-49.5 25t-30.5 29.5t-17.5 24.5zM326 0l434 1434h39l-434 -1434h-39zM584 137v35l200 387h43l-202 -391h237v151h37v-151h80v-31h-80v-137h-37v137 h-278z" />
<glyph unicode="&#xbf;" horiz-adv-x="851" d="M90 -174q0 78 20.5 140.5t54 105.5t73.5 82t79.5 81.5t73 93t54 128t20.5 174.5h37q0 -100 -20.5 -179.5t-54 -131.5t-73.5 -96t-79.5 -83t-73 -80.5t-54 -101t-20.5 -133.5q0 -131 78.5 -211t226.5 -80q131 0 214 81.5t83 217.5l37 -6q0 -147 -95 -237.5t-239 -90.5 q-88 0 -155 26.5t-107 73t-60 103.5t-20 123zM430 946q0 22 15.5 37.5t37.5 15.5t38 -15.5t16 -37.5t-16 -37.5t-38 -15.5t-37.5 15.5t-15.5 37.5z" />
<glyph unicode="&#xc0;" horiz-adv-x="1286" d="M70 0l551 1434h45l551 -1434h-41l-181 471h-704l-180 -471h-41zM305 508h676l-338 885zM381 1901h55l176 -291h-45z" />
<glyph unicode="&#xc1;" horiz-adv-x="1286" d="M70 0l551 1434h45l551 -1434h-41l-181 471h-704l-180 -471h-41zM305 508h676l-338 885zM627 1610l176 291h55l-186 -291h-45z" />
<glyph unicode="&#xc2;" horiz-adv-x="1286" d="M70 0l551 1434h45l551 -1434h-41l-181 471h-704l-180 -471h-41zM305 508h676l-338 885zM438 1610l176 291h56l176 -291h-45l-160 248l-158 -248h-45z" />
<glyph unicode="&#xc3;" horiz-adv-x="1286" d="M70 0l551 1434h45l551 -1434h-41l-181 471h-704l-180 -471h-41zM305 508h676l-338 885zM406 1714q0 48 29 78.5t83 30.5q50 0 130 -40t130 -40q28 0 46 13.5t18 39.5q0 16 -3 29t-7 19l-3 5h43q13 -20 13 -53q0 -43 -27 -68.5t-80 -25.5q-50 0 -97 20t-88 40t-75 20 q-32 0 -52 -18t-20 -50q0 -15 4 -29.5t8 -22.5l5 -7h-43q-14 24 -14 59z" />
<glyph unicode="&#xc4;" horiz-adv-x="1286" d="M70 0l551 1434h45l551 -1434h-41l-181 471h-704l-180 -471h-41zM305 508h676l-338 885zM440 1743q0 22 16 37.5t38 15.5t37.5 -15.5t15.5 -37.5t-15.5 -37.5t-37.5 -15.5t-38 15.5t-16 37.5zM741 1743q0 22 16 37.5t38 15.5t37.5 -15.5t15.5 -37.5t-15.5 -37.5 t-37.5 -15.5t-38 15.5t-16 37.5z" />
<glyph unicode="&#xc5;" horiz-adv-x="1286" d="M70 0l551 1434h45l551 -1434h-41l-181 471h-704l-180 -471h-41zM305 508h676l-338 885zM526 1726q0 51 33 84t84 33t84 -33t33 -84t-33 -83.5t-84 -32.5t-84 32.5t-33 83.5zM561 1726q0 -37 22 -59t60 -22t60 22t22 59t-22 59.5t-60 22.5t-60 -22.5t-22 -59.5z" />
<glyph unicode="&#xc6;" horiz-adv-x="1642" d="M70 0l559 1434h903v-39h-842l240 -635h495v-39h-479l260 -682h326v-39h-352l-174 469h-717l-176 -469h-43zM303 506h686l-338 878z" />
<glyph unicode="&#xc7;" horiz-adv-x="1277" d="M135 711q0 156 29.5 281.5t81 209t124 139.5t154.5 80.5t176 24.5q68 0 127.5 -13t102.5 -35.5t79 -51t59.5 -60t42 -63.5t28.5 -60.5t16 -51t8 -35.5l2 -13l-39 -10q-1 7 -3 20t-13 50t-27.5 70.5t-50 74.5t-76 70.5t-109.5 50t-147 20.5q-85 0 -159.5 -22t-142.5 -74.5 t-116.5 -131t-77 -199t-28.5 -271.5q0 -154 31 -275t82.5 -197t123.5 -125.5t147.5 -69t160.5 -19.5q81 0 155 23t121.5 55.5t83.5 64.5t52 55l16 23l25 -31q-6 -9 -17.5 -24.5t-53.5 -54t-90 -68.5t-127 -54.5t-165 -25.5l-29 -76q58 -3 102 -37.5t44 -93.5q0 -55 -40 -89 t-112 -34q-36 0 -66.5 11t-42.5 23l-12 11l17 33q4 -5 12.5 -11.5t36.5 -18t57 -11.5q51 0 80 23t29 63q0 41 -37.5 70.5t-120.5 29.5l41 109q-93 4 -172 30.5t-149 81.5t-119 136t-77 201.5t-28 271.5z" />
<glyph unicode="&#xc8;" horiz-adv-x="1136" d="M205 0v1434h799v-37h-758v-662h676v-37h-676v-661h758v-37h-799zM440 1901h56l176 -291h-45z" />
<glyph unicode="&#xc9;" horiz-adv-x="1136" d="M205 0v1434h799v-37h-758v-662h676v-37h-676v-661h758v-37h-799zM631 1610l176 291h55l-186 -291h-45z" />
<glyph unicode="&#xca;" horiz-adv-x="1136" d="M205 0v1434h799v-37h-758v-662h676v-37h-676v-661h758v-37h-799zM467 1610l176 291h55l176 -291h-45l-159 248l-158 -248h-45z" />
<glyph unicode="&#xcb;" horiz-adv-x="1136" d="M205 0v1434h799v-37h-758v-662h676v-37h-676v-661h758v-37h-799zM477 1743q0 22 15.5 37.5t37.5 15.5t38 -15.5t16 -37.5t-16 -37.5t-38 -15.5t-37.5 15.5t-15.5 37.5zM778 1743q0 22 15.5 37.5t37.5 15.5t38 -15.5t16 -37.5t-16 -37.5t-38 -15.5t-37.5 15.5t-15.5 37.5z " />
<glyph unicode="&#xcc;" horiz-adv-x="450" d="M20 1901h56l176 -291h-45zM205 0v1434h41v-1434h-41z" />
<glyph unicode="&#xcd;" horiz-adv-x="450" d="M205 0v1434h41v-1434h-41zM211 1610l176 291h55l-186 -291h-45z" />
<glyph unicode="&#xce;" horiz-adv-x="450" d="M20 1610l177 291h55l176 -291h-45l-160 248l-157 -248h-46zM205 0v1434h41v-1434h-41z" />
<glyph unicode="&#xcf;" horiz-adv-x="450" d="M20 1743q0 22 16 37.5t38 15.5t37.5 -15.5t15.5 -37.5t-15.5 -37.5t-37.5 -15.5t-38 15.5t-16 37.5zM205 0v1434h41v-1434h-41zM322 1743q0 22 15.5 37.5t37.5 15.5t37.5 -15.5t15.5 -37.5t-15.5 -37.5t-37.5 -15.5t-37.5 15.5t-15.5 37.5z" />
<glyph unicode="&#xd0;" horiz-adv-x="1337" d="M205 0v1434h327q147 0 267.5 -43.5t211.5 -130t141 -227t50 -324.5q0 -348 -153 -528.5t-435 -180.5h-409zM246 37h368q259 0 403 167.5t144 504.5q0 147 -33.5 264t-91 195.5t-138 130.5t-171.5 75t-195 23h-286v-662h512v-37h-512v-661z" />
<glyph unicode="&#xd1;" horiz-adv-x="1372" d="M205 0v1434h63l858 -1397v1397h41v-1434h-63l-858 1397v-1397h-41zM459 1714q0 48 29 78.5t83 30.5q50 0 130 -40t130 -40q28 0 46 13.5t18 39.5q0 16 -3 29t-6 19l-3 5h43q12 -20 12 -53q0 -43 -27 -68.5t-80 -25.5q-50 0 -97 20t-88 40t-75 20q-31 0 -51 -18t-20 -50 q0 -15 4 -29.5t8 -22.5l4 -7h-43q-14 24 -14 59z" />
<glyph unicode="&#xd2;" d="M135 715q0 158 32.5 284.5t87 208.5t129.5 137t155.5 78t169.5 23t169.5 -23t155 -78t129 -137t87 -208.5t32.5 -284.5t-32.5 -284t-87 -207.5t-129 -136t-155 -77t-169.5 -22.5t-169.5 22.5t-155.5 77t-129.5 136t-87 207.5t-32.5 284zM176 715q0 -149 30 -268 t80.5 -196.5t120 -129.5t144.5 -74t158 -22t158 22t144 74t119.5 129.5t80.5 196.5t30 268t-30 268.5t-80.5 197.5t-119.5 130.5t-144 75t-158 22.5t-158 -22.5t-144.5 -75t-120 -130.5t-80.5 -197.5t-30 -268.5zM500 1901h55l176 -291h-45z" />
<glyph unicode="&#xd3;" d="M135 715q0 158 32.5 284.5t87 208.5t129.5 137t155.5 78t169.5 23t169.5 -23t155 -78t129 -137t87 -208.5t32.5 -284.5t-32.5 -284t-87 -207.5t-129 -136t-155 -77t-169.5 -22.5t-169.5 22.5t-155.5 77t-129.5 136t-87 207.5t-32.5 284zM176 715q0 -149 30 -268 t80.5 -196.5t120 -129.5t144.5 -74t158 -22t158 22t144 74t119.5 129.5t80.5 196.5t30 268t-30 268.5t-80.5 197.5t-119.5 130.5t-144 75t-158 22.5t-158 -22.5t-144.5 -75t-120 -130.5t-80.5 -197.5t-30 -268.5zM659 1610l177 291h55l-186 -291h-46z" />
<glyph unicode="&#xd4;" d="M135 715q0 158 32.5 284.5t87 208.5t129.5 137t155.5 78t169.5 23t169.5 -23t155 -78t129 -137t87 -208.5t32.5 -284.5t-32.5 -284t-87 -207.5t-129 -136t-155 -77t-169.5 -22.5t-169.5 22.5t-155.5 77t-129.5 136t-87 207.5t-32.5 284zM176 715q0 -149 30 -268 t80.5 -196.5t120 -129.5t144.5 -74t158 -22t158 22t144 74t119.5 129.5t80.5 196.5t30 268t-30 268.5t-80.5 197.5t-119.5 130.5t-144 75t-158 22.5t-158 -22.5t-144.5 -75t-120 -130.5t-80.5 -197.5t-30 -268.5zM518 1610l176 291h56l176 -291h-45l-160 248l-158 -248h-45z " />
<glyph unicode="&#xd5;" d="M135 715q0 158 32.5 284.5t87 208.5t129.5 137t155.5 78t169.5 23t169.5 -23t155 -78t129 -137t87 -208.5t32.5 -284.5t-32.5 -284t-87 -207.5t-129 -136t-155 -77t-169.5 -22.5t-169.5 22.5t-155.5 77t-129.5 136t-87 207.5t-32.5 284zM176 715q0 -149 30 -268 t80.5 -196.5t120 -129.5t144.5 -74t158 -22t158 22t144 74t119.5 129.5t80.5 196.5t30 268t-30 268.5t-80.5 197.5t-119.5 130.5t-144 75t-158 22.5t-158 -22.5t-144.5 -75t-120 -130.5t-80.5 -197.5t-30 -268.5zM485 1714q0 48 29.5 78.5t83.5 30.5q50 0 130 -40t130 -40 q28 0 46 13.5t18 39.5q0 16 -3 29t-7 19l-3 5h43q13 -20 13 -53q0 -43 -27 -68.5t-80 -25.5q-50 0 -97 20t-88 40t-75 20q-32 0 -52 -18t-20 -50q0 -15 4 -29.5t8 -22.5l5 -7h-43q-15 24 -15 59z" />
<glyph unicode="&#xd6;" d="M135 715q0 158 32.5 284.5t87 208.5t129.5 137t155.5 78t169.5 23t169.5 -23t155 -78t129 -137t87 -208.5t32.5 -284.5t-32.5 -284t-87 -207.5t-129 -136t-155 -77t-169.5 -22.5t-169.5 22.5t-155.5 77t-129.5 136t-87 207.5t-32.5 284zM176 715q0 -149 30 -268 t80.5 -196.5t120 -129.5t144.5 -74t158 -22t158 22t144 74t119.5 129.5t80.5 196.5t30 268t-30 268.5t-80.5 197.5t-119.5 130.5t-144 75t-158 22.5t-158 -22.5t-144.5 -75t-120 -130.5t-80.5 -197.5t-30 -268.5zM506 1743q0 22 15.5 37.5t37.5 15.5t37.5 -15.5t15.5 -37.5 t-15.5 -37.5t-37.5 -15.5t-37.5 15.5t-15.5 37.5zM807 1743q0 22 15.5 37.5t37.5 15.5t37.5 -15.5t15.5 -37.5t-15.5 -37.5t-37.5 -15.5t-37.5 15.5t-15.5 37.5z" />
<glyph unicode="&#xd7;" horiz-adv-x="876" d="M166 317l246 246l-246 246l27 27l245 -246l246 246l27 -27l-246 -246l246 -246l-27 -26l-246 246l-245 -246z" />
<glyph unicode="&#xd8;" d="M135 715q0 158 32.5 284.5t87 208.5t129.5 137t155.5 78t169.5 23q71 0 135.5 -15t106 -36.5t73 -43t45.5 -36.5l14 -15l113 166h45l-131 -192q7 -6 18.5 -19t41 -61t52.5 -106.5t41.5 -158.5t18.5 -214q0 -158 -32.5 -284t-87 -207.5t-129 -136t-155 -77t-169.5 -22.5 q-70 0 -134.5 14.5t-107 35.5t-74.5 42.5t-47 35.5l-14 15l-111 -164h-45l129 191q-7 6 -18.5 19t-40.5 61.5t-51.5 107t-41 158t-18.5 211.5zM176 715q0 -106 16 -199t38.5 -149.5t45 -98t38.5 -58.5l16 -17l731 1075q-5 6 -14.5 15.5t-43 33.5t-71 43t-98 34t-125.5 15 q-83 0 -158 -22.5t-144.5 -75t-120 -130.5t-80.5 -197.5t-30 -268.5zM354 166q5 -6 14.5 -15.5t43 -33.5t71.5 -43t99.5 -34t126.5 -15q83 0 158 22t144 74t119.5 129.5t80.5 196.5t30 268q0 104 -16 197t-38.5 150.5t-45 100t-38.5 60.5l-16 18z" />
<glyph unicode="&#xd9;" horiz-adv-x="1388" d="M193 582v852h40v-852q0 -126 22.5 -222.5t62 -159.5t98.5 -102.5t126.5 -56t151.5 -16.5t151.5 16.5t126.5 56t98.5 102.5t62 159.5t22.5 222.5v852h41v-852q0 -135 -24 -238t-66.5 -170t-106.5 -109t-138 -59.5t-167 -17.5t-166.5 17.5t-137.5 59.5t-106.5 109 t-66.5 170t-24 238zM485 1901h56l176 -291h-45z" />
<glyph unicode="&#xda;" horiz-adv-x="1388" d="M193 582v852h40v-852q0 -126 22.5 -222.5t62 -159.5t98.5 -102.5t126.5 -56t151.5 -16.5t151.5 16.5t126.5 56t98.5 102.5t62 159.5t22.5 222.5v852h41v-852q0 -135 -24 -238t-66.5 -170t-106.5 -109t-138 -59.5t-167 -17.5t-166.5 17.5t-137.5 59.5t-106.5 109 t-66.5 170t-24 238zM645 1610l176 291h56l-187 -291h-45z" />
<glyph unicode="&#xdb;" horiz-adv-x="1388" d="M193 582v852h40v-852q0 -126 22.5 -222.5t62 -159.5t98.5 -102.5t126.5 -56t151.5 -16.5t151.5 16.5t126.5 56t98.5 102.5t62 159.5t22.5 222.5v852h41v-852q0 -135 -24 -238t-66.5 -170t-106.5 -109t-138 -59.5t-167 -17.5t-166.5 17.5t-137.5 59.5t-106.5 109 t-66.5 170t-24 238zM489 1610l177 291h55l176 -291h-45l-160 248l-157 -248h-46z" />
<glyph unicode="&#xdc;" horiz-adv-x="1388" d="M193 582v852h40v-852q0 -126 22.5 -222.5t62 -159.5t98.5 -102.5t126.5 -56t151.5 -16.5t151.5 16.5t126.5 56t98.5 102.5t62 159.5t22.5 222.5v852h41v-852q0 -135 -24 -238t-66.5 -170t-106.5 -109t-138 -59.5t-167 -17.5t-166.5 17.5t-137.5 59.5t-106.5 109 t-66.5 170t-24 238zM492 1743q0 22 15.5 37.5t37.5 15.5t37.5 -15.5t15.5 -37.5t-15.5 -37.5t-37.5 -15.5t-37.5 15.5t-15.5 37.5zM793 1743q0 22 15.5 37.5t37.5 15.5t37.5 -15.5t15.5 -37.5t-15.5 -37.5t-37.5 -15.5t-37.5 15.5t-15.5 37.5z" />
<glyph unicode="&#xdd;" horiz-adv-x="1212" d="M76 1434h45l485 -750l486 750h45l-510 -787v-647h-41v647zM573 1610l177 291h55l-187 -291h-45z" />
<glyph unicode="&#xde;" horiz-adv-x="1175" d="M205 0v1434h41v-267h368q219 0 337 -107.5t118 -314.5q0 -206 -117 -307.5t-338 -101.5h-368v-336h-41zM246 373h368q414 0 414 372q0 183 -102.5 284t-311.5 101h-368v-757z" />
<glyph unicode="&#xdf;" horiz-adv-x="1015" d="M172 0v1161q0 166 82 252t219 86q78 0 138 -26.5t95.5 -71t53.5 -98t18 -113.5q0 -77 -24.5 -143t-60 -108.5t-70.5 -76t-59.5 -60.5t-24.5 -46q0 -17 21 -36t55 -39.5t75.5 -45.5t82.5 -59.5t75 -75.5t55 -98t21 -123q0 -156 -99.5 -233t-269.5 -77q-61 0 -116 8t-80 17 l-25 8l12 35q70 -33 209 -33q156 0 244 70t88 205q0 72 -28.5 134t-71.5 101.5t-92.5 75.5t-92.5 60.5t-71.5 52t-28.5 53.5q0 28 24.5 58t60 62t70.5 72t59.5 103t24.5 139q0 52 -16 99.5t-47.5 87t-84.5 63.5t-120 24q-125 0 -194.5 -76t-69.5 -227v-1161h-37z" />
<glyph unicode="&#xe0;" horiz-adv-x="997" d="M104 231q0 244 351 244h336v193q0 153 -75 224t-224 71q-145 0 -224.5 -67.5t-79.5 -176.5q0 -30 6 -56t12 -37l5 -10h-37q-22 33 -22 109q0 118 91.5 196t248.5 78q335 0 335 -331v-512q0 -63 19 -93t69 -30v-31q-6 -2 -20 -2q-44 0 -74 35.5t-30 109.5v131 q-15 -38 -34 -73.5t-52 -76t-72.5 -70t-97 -49t-123.5 -19.5q-149 0 -228.5 62t-79.5 181zM145 233q0 -99 71 -154.5t196 -55.5q61 0 115 19t91 49t68 66.5t50 73t32 66.5t18 49l5 19v75h-336q-148 0 -229 -54t-81 -153zM264 1454h55l177 -291h-45z" />
<glyph unicode="&#xe1;" horiz-adv-x="997" d="M104 231q0 244 351 244h336v193q0 153 -75 224t-224 71q-145 0 -224.5 -67.5t-79.5 -176.5q0 -30 6 -56t12 -37l5 -10h-37q-22 33 -22 109q0 118 91.5 196t248.5 78q335 0 335 -331v-512q0 -63 19 -93t69 -30v-31q-6 -2 -20 -2q-44 0 -74 35.5t-30 109.5v131 q-15 -38 -34 -73.5t-52 -76t-72.5 -70t-97 -49t-123.5 -19.5q-149 0 -228.5 62t-79.5 181zM145 233q0 -99 71 -154.5t196 -55.5q61 0 115 19t91 49t68 66.5t50 73t32 66.5t18 49l5 19v75h-336q-148 0 -229 -54t-81 -153zM442 1163l176 291h56l-187 -291h-45z" />
<glyph unicode="&#xe2;" horiz-adv-x="997" d="M104 231q0 244 351 244h336v193q0 153 -75 224t-224 71q-145 0 -224.5 -67.5t-79.5 -176.5q0 -30 6 -56t12 -37l5 -10h-37q-22 33 -22 109q0 118 91.5 196t248.5 78q335 0 335 -331v-512q0 -63 19 -93t69 -30v-31q-6 -2 -20 -2q-44 0 -74 35.5t-30 109.5v131 q-15 -38 -34 -73.5t-52 -76t-72.5 -70t-97 -49t-123.5 -19.5q-149 0 -228.5 62t-79.5 181zM145 233q0 -99 71 -154.5t196 -55.5q61 0 115 19t91 49t68 66.5t50 73t32 66.5t18 49l5 19v75h-336q-148 0 -229 -54t-81 -153zM299 1163l176 291h55l177 -291h-45l-160 248 l-158 -248h-45z" />
<glyph unicode="&#xe3;" horiz-adv-x="997" d="M104 231q0 244 351 244h336v193q0 153 -75 224t-224 71q-145 0 -224.5 -67.5t-79.5 -176.5q0 -30 6 -56t12 -37l5 -10h-37q-22 33 -22 109q0 118 91.5 196t248.5 78q335 0 335 -331v-512q0 -63 19 -93t69 -30v-31q-6 -2 -20 -2q-44 0 -74 35.5t-30 109.5v131 q-15 -38 -34 -73.5t-52 -76t-72.5 -70t-97 -49t-123.5 -19.5q-149 0 -228.5 62t-79.5 181zM145 233q0 -99 71 -154.5t196 -55.5q61 0 115 19t91 49t68 66.5t50 73t32 66.5t18 49l5 19v75h-336q-148 0 -229 -54t-81 -153zM238 1268q0 48 29 78t83 30q50 0 130 -40t130 -40 q28 0 46 14t18 40q0 16 -3 29t-6 19l-3 5h43q12 -20 12 -53q0 -43 -27 -69t-80 -26q-50 0 -97 20t-88 40t-75 20q-32 0 -51.5 -18t-19.5 -49q0 -15 4 -30t8 -22l4 -8h-43q-14 25 -14 60z" />
<glyph unicode="&#xe4;" horiz-adv-x="997" d="M104 231q0 244 351 244h336v193q0 153 -75 224t-224 71q-145 0 -224.5 -67.5t-79.5 -176.5q0 -30 6 -56t12 -37l5 -10h-37q-22 33 -22 109q0 118 91.5 196t248.5 78q335 0 335 -331v-512q0 -63 19 -93t69 -30v-31q-6 -2 -20 -2q-44 0 -74 35.5t-30 109.5v131 q-15 -38 -34 -73.5t-52 -76t-72.5 -70t-97 -49t-123.5 -19.5q-149 0 -228.5 62t-79.5 181zM145 233q0 -99 71 -154.5t196 -55.5q61 0 115 19t91 49t68 66.5t50 73t32 66.5t18 49l5 19v75h-336q-148 0 -229 -54t-81 -153zM299 1296q0 22 15.5 38t37.5 16t38 -16t16 -38 t-16 -37.5t-38 -15.5t-37.5 15.5t-15.5 37.5zM600 1296q0 22 15.5 38t37.5 16t38 -16t16 -38t-16 -37.5t-38 -15.5t-37.5 15.5t-15.5 37.5z" />
<glyph unicode="&#xe5;" horiz-adv-x="997" d="M104 231q0 244 351 244h336v193q0 153 -75 224t-224 71q-145 0 -224.5 -67.5t-79.5 -176.5q0 -30 6 -56t12 -37l5 -10h-37q-22 33 -22 109q0 118 91.5 196t248.5 78q335 0 335 -331v-512q0 -63 19 -93t69 -30v-31q-6 -2 -20 -2q-44 0 -74 35.5t-30 109.5v131 q-15 -38 -34 -73.5t-52 -76t-72.5 -70t-97 -49t-123.5 -19.5q-149 0 -228.5 62t-79.5 181zM145 233q0 -99 71 -154.5t196 -55.5q61 0 115 19t91 49t68 66.5t50 73t32 66.5t18 49l5 19v75h-336q-148 0 -229 -54t-81 -153zM385 1280q0 51 33 84t84 33t83.5 -33t32.5 -84 t-32.5 -84t-83.5 -33t-84 33t-33 84zM420 1280q0 -37 22 -59.5t60 -22.5t60 22.5t22 59.5t-22 59.5t-60 22.5t-60 -22.5t-22 -59.5z" />
<glyph unicode="&#xe6;" horiz-adv-x="1638" d="M104 231q0 244 351 244h336v193q0 153 -75 224t-224 71q-145 0 -224.5 -67.5t-79.5 -176.5q0 -30 6 -56t12 -37l5 -10h-37q-22 33 -22 109q0 118 91.5 196t248.5 78q297 0 331 -264q5 23 15 49t37 67t64 71.5t101.5 53.5t143.5 23q93 0 160 -34t104.5 -95t54.5 -135.5 t17 -165.5v-34h-693v-39q0 -111 25.5 -198t64 -137.5t90 -82.5t97.5 -43.5t92 -11.5q56 0 107 15.5t83 37.5t56 44.5t34 37.5l11 16l26 -24q-3 -7 -10 -17.5t-33.5 -38.5t-59.5 -49.5t-90.5 -39t-123.5 -17.5q-89 0 -160.5 30.5t-110.5 71t-66 90.5t-35.5 79t-10.5 46 q-15 -38 -37 -77t-59 -83.5t-79.5 -78t-102 -56t-123.5 -22.5q-149 0 -228.5 62t-79.5 181zM145 233q0 -99 71 -154.5t196 -55.5q61 0 115 19t91 49t68 66.5t50 73t32 66.5t18 49l5 19v75h-336q-148 0 -229 -54t-81 -153zM829 569h654q0 67 -9 123.5t-30.5 107.5t-55 87 t-85.5 57t-119 21q-151 0 -246 -97t-109 -299z" />
<glyph unicode="&#xe7;" horiz-adv-x="958" d="M121 496q0 136 31.5 236t88 157t127 83.5t156.5 26.5q84 0 146.5 -23.5t97.5 -64t51.5 -88t16.5 -102.5q0 -23 -2 -44.5t-4 -31.5l-3 -10h-36q8 45 8 86q0 46 -14 86.5t-44 77.5t-85.5 58.5t-131.5 21.5q-165 0 -265.5 -115t-100.5 -354q0 -94 17.5 -170t47.5 -126 t66.5 -86t79.5 -55t81 -27.5t76 -8.5q56 0 107 15.5t83 37.5t56 44.5t34 37.5l11 16l27 -24q-3 -7 -10.5 -17.5t-34.5 -38t-59.5 -49t-89 -39t-120.5 -18.5l-28 -76q58 -3 101.5 -37.5t43.5 -93.5q0 -55 -39.5 -89t-111.5 -34q-36 0 -66.5 11t-42.5 23l-12 11l16 33 q5 -5 13.5 -11.5t36.5 -18t57 -11.5q51 0 79.5 23t28.5 63q0 41 -37 70.5t-120 29.5l40 109q-54 4 -103 20t-98.5 53t-85.5 91.5t-58.5 142.5t-22.5 199z" />
<glyph unicode="&#xe8;" horiz-adv-x="968" d="M121 496q0 137 30 236.5t84.5 156.5t123.5 83.5t155 26.5q93 0 160 -34t104.5 -95t54.5 -135.5t17 -165.5v-34h-692v-39q0 -94 17.5 -170t47.5 -126t66.5 -86t79.5 -55t81 -27.5t76 -8.5q56 0 107 15.5t83 37.5t56 44.5t34 37.5l11 16l27 -24q-3 -7 -10 -17.5t-34 -38.5 t-60 -49.5t-90.5 -39t-123.5 -17.5q-57 0 -109.5 13t-108 48t-95.5 89.5t-66 146.5t-26 211zM160 569h653q0 67 -9 123.5t-30.5 107.5t-55 87t-85.5 57t-119 21q-150 0 -245 -97t-109 -299zM264 1454h55l177 -291h-45z" />
<glyph unicode="&#xe9;" horiz-adv-x="968" d="M121 496q0 137 30 236.5t84.5 156.5t123.5 83.5t155 26.5q93 0 160 -34t104.5 -95t54.5 -135.5t17 -165.5v-34h-692v-39q0 -94 17.5 -170t47.5 -126t66.5 -86t79.5 -55t81 -27.5t76 -8.5q56 0 107 15.5t83 37.5t56 44.5t34 37.5l11 16l27 -24q-3 -7 -10 -17.5t-34 -38.5 t-60 -49.5t-90.5 -39t-123.5 -17.5q-57 0 -109.5 13t-108 48t-95.5 89.5t-66 146.5t-26 211zM160 569h653q0 67 -9 123.5t-30.5 107.5t-55 87t-85.5 57t-119 21q-150 0 -245 -97t-109 -299zM475 1163l176 291h56l-187 -291h-45z" />
<glyph unicode="&#xea;" horiz-adv-x="968" d="M121 496q0 137 30 236.5t84.5 156.5t123.5 83.5t155 26.5q93 0 160 -34t104.5 -95t54.5 -135.5t17 -165.5v-34h-692v-39q0 -94 17.5 -170t47.5 -126t66.5 -86t79.5 -55t81 -27.5t76 -8.5q56 0 107 15.5t83 37.5t56 44.5t34 37.5l11 16l27 -24q-3 -7 -10 -17.5t-34 -38.5 t-60 -49.5t-90.5 -39t-123.5 -17.5q-57 0 -109.5 13t-108 48t-95.5 89.5t-66 146.5t-26 211zM160 569h653q0 67 -9 123.5t-30.5 107.5t-55 87t-85.5 57t-119 21q-150 0 -245 -97t-109 -299zM315 1163l177 291h55l176 -291h-45l-160 248l-158 -248h-45z" />
<glyph unicode="&#xeb;" horiz-adv-x="968" d="M121 496q0 137 30 236.5t84.5 156.5t123.5 83.5t155 26.5q93 0 160 -34t104.5 -95t54.5 -135.5t17 -165.5v-34h-692v-39q0 -94 17.5 -170t47.5 -126t66.5 -86t79.5 -55t81 -27.5t76 -8.5q56 0 107 15.5t83 37.5t56 44.5t34 37.5l11 16l27 -24q-3 -7 -10 -17.5t-34 -38.5 t-60 -49.5t-90.5 -39t-123.5 -17.5q-57 0 -109.5 13t-108 48t-95.5 89.5t-66 146.5t-26 211zM160 569h653q0 67 -9 123.5t-30.5 107.5t-55 87t-85.5 57t-119 21q-150 0 -245 -97t-109 -299zM315 1296q0 22 16 38t38 16t37.5 -16t15.5 -38t-15.5 -37.5t-37.5 -15.5t-38 15.5 t-16 37.5zM616 1296q0 22 16 38t38 16t37.5 -16t15.5 -38t-15.5 -37.5t-37.5 -15.5t-38 15.5t-16 37.5z" />
<glyph unicode="&#xec;" horiz-adv-x="387" d="M-23 1454h56l176 -291h-45zM168 147v840h37v-840q0 -58 19.5 -85t68.5 -27v-35q-9 -2 -21 -2q-45 0 -74.5 36t-29.5 113z" />
<glyph unicode="&#xed;" horiz-adv-x="387" d="M168 147v840h37v-840q0 -58 19.5 -85t68.5 -27v-35q-9 -2 -21 -2q-45 0 -74.5 36t-29.5 113zM168 1163l176 291h55l-186 -291h-45z" />
<glyph unicode="&#xee;" horiz-adv-x="387" d="M-14 1163l176 291h55l176 -291h-45l-160 248l-157 -248h-45zM168 147v840h37v-840q0 -58 19.5 -85t68.5 -27v-35q-9 -2 -21 -2q-45 0 -74.5 36t-29.5 113z" />
<glyph unicode="&#xef;" horiz-adv-x="387" d="M-16 1296q0 22 15.5 38t37.5 16t37.5 -16t15.5 -38t-15.5 -37.5t-37.5 -15.5t-37.5 15.5t-15.5 37.5zM168 147v840h37v-840q0 -58 19.5 -85t68.5 -27v-35q-9 -2 -21 -2q-45 0 -74.5 36t-29.5 113zM285 1296q0 22 15.5 38t37.5 16t37.5 -16t15.5 -38t-15.5 -37.5 t-37.5 -15.5t-37.5 15.5t-15.5 37.5z" />
<glyph unicode="&#xf0;" horiz-adv-x="1132" d="M123 422q0 221 117.5 341t302.5 120q76 0 147.5 -19.5t118.5 -47.5t83.5 -56.5t53.5 -47.5l17 -20q0 81 -11.5 155t-29.5 128.5t-40 101.5t-44.5 77.5t-40.5 52.5t-29 32l-12 10l-262 -164l-19 33l252 158q-5 5 -15 13t-44 29t-71 37t-95.5 29t-118.5 13v37 q66 0 129 -14.5t105.5 -35t76 -41t48.5 -35.5l16 -14l221 140l18 -33l-211 -133q9 -7 23 -21.5t51 -67.5t65 -116t51 -169.5t23 -225.5q0 -149 -20 -263t-57.5 -192.5t-95 -129t-129 -73t-162.5 -22.5q-181 0 -296.5 118.5t-115.5 315.5zM160 422q0 -179 104 -289t275 -110 q424 0 424 618q-6 8 -18 22t-52 50t-85.5 63t-117 49.5t-147.5 22.5q-167 0 -275 -112t-108 -314z" />
<glyph unicode="&#xf1;" horiz-adv-x="1073" d="M96 952v35q9 2 23 2q43 0 72.5 -35.5t29.5 -109.5v-129q28 124 116.5 204t225.5 80q90 0 157 -29.5t106.5 -82t59 -119t19.5 -147.5v-474q0 -58 19.5 -85t68.5 -27v-35q-8 -2 -20 -2q-45 0 -75 36t-30 113v474q0 149 -78 246.5t-227 97.5q-67 0 -124 -25.5t-96.5 -67 t-67.5 -95t-41 -108.5t-13 -108v-561h-37v844q0 54 -19 81t-69 27zM295 1268q0 48 29.5 78t83.5 30q50 0 130 -40t130 -40q28 0 45.5 13.5t17.5 40.5q0 16 -3 29t-6 19l-3 5h43q12 -20 12 -53q0 -43 -26.5 -69t-79.5 -26q-50 0 -97 20t-88 40t-75 20q-32 0 -52 -18t-20 -49 q0 -15 4 -30t8 -22l4 -8h-43q-14 25 -14 60z" />
<glyph unicode="&#xf2;" horiz-adv-x="1052" d="M121 494q0 247 112.5 376t292.5 129t293 -129t113 -376t-113 -376.5t-293 -129.5t-292.5 129.5t-112.5 376.5zM158 494q0 -119 30 -211.5t82 -148t117 -83.5t139 -28t139 28t117.5 83.5t82.5 148t30 211.5t-30 211.5t-82.5 148t-117.5 83.5t-139 28t-139 -28t-117 -83.5 t-82 -148t-30 -211.5zM303 1454h55l177 -291h-46z" />
<glyph unicode="&#xf3;" horiz-adv-x="1052" d="M121 494q0 247 112.5 376t292.5 129t293 -129t113 -376t-113 -376.5t-293 -129.5t-292.5 129.5t-112.5 376.5zM158 494q0 -119 30 -211.5t82 -148t117 -83.5t139 -28t139 28t117.5 83.5t82.5 148t30 211.5t-30 211.5t-82.5 148t-117.5 83.5t-139 28t-139 -28t-117 -83.5 t-82 -148t-30 -211.5zM502 1163l176 291h55l-186 -291h-45z" />
<glyph unicode="&#xf4;" horiz-adv-x="1052" d="M121 494q0 247 112.5 376t292.5 129t293 -129t113 -376t-113 -376.5t-293 -129.5t-292.5 129.5t-112.5 376.5zM158 494q0 -119 30 -211.5t82 -148t117 -83.5t139 -28t139 28t117.5 83.5t82.5 148t30 211.5t-30 211.5t-82.5 148t-117.5 83.5t-139 28t-139 -28t-117 -83.5 t-82 -148t-30 -211.5zM322 1163l176 291h55l176 -291h-45l-160 248l-157 -248h-45z" />
<glyph unicode="&#xf5;" horiz-adv-x="1052" d="M121 494q0 247 112.5 376t292.5 129t293 -129t113 -376t-113 -376.5t-293 -129.5t-292.5 129.5t-112.5 376.5zM158 494q0 -119 30 -211.5t82 -148t117 -83.5t139 -28t139 28t117.5 83.5t82.5 148t30 211.5t-30 211.5t-82.5 148t-117.5 83.5t-139 28t-139 -28t-117 -83.5 t-82 -148t-30 -211.5zM279 1268q0 48 29 78t83 30q50 0 130 -40t130 -40q28 0 46 14t18 40q0 16 -3.5 29t-6.5 19l-3 5h43q13 -20 13 -53q0 -43 -27 -69t-80 -26q-50 0 -97 20t-88 40t-75 20q-32 0 -52 -18t-20 -49q0 -15 4.5 -30t8.5 -22l4 -8h-43q-14 25 -14 60z" />
<glyph unicode="&#xf6;" horiz-adv-x="1052" d="M121 494q0 247 112.5 376t292.5 129t293 -129t113 -376t-113 -376.5t-293 -129.5t-292.5 129.5t-112.5 376.5zM158 494q0 -119 30 -211.5t82 -148t117 -83.5t139 -28t139 28t117.5 83.5t82.5 148t30 211.5t-30 211.5t-82.5 148t-117.5 83.5t-139 28t-139 -28t-117 -83.5 t-82 -148t-30 -211.5zM326 1296q0 22 15.5 38t37.5 16t37.5 -16t15.5 -38t-15.5 -37.5t-37.5 -15.5t-37.5 15.5t-15.5 37.5zM627 1296q0 22 15.5 38t37.5 16t37.5 -16t15.5 -38t-15.5 -37.5t-37.5 -15.5t-37.5 15.5t-15.5 37.5z" />
<glyph unicode="&#xf7;" horiz-adv-x="1001" d="M170 545v37h664v-37h-664zM453 328q0 23 18 41t41 18t41 -18t18 -41t-18 -41.5t-41 -18.5t-41 18.5t-18 41.5zM453 791q0 22 15.5 37.5t37.5 15.5t37.5 -15.5t15.5 -37.5t-15.5 -38t-37.5 -16t-37.5 16t-15.5 38z" />
<glyph unicode="&#xf8;" horiz-adv-x="1052" d="M121 494q0 247 112.5 376t292.5 129q46 0 88.5 -9t70.5 -21.5t49.5 -25t31.5 -21.5l10 -9l74 115h41l-90 -139q5 -4 14 -13t31.5 -42.5t40 -74.5t31.5 -112.5t14 -152.5q0 -247 -113 -376.5t-293 -129.5q-45 0 -87.5 9t-71 21.5t-50 25t-31.5 21.5l-10 9l-73 -115h-41 l90 139q-5 4 -14 13.5t-31.5 43.5t-40 75.5t-31.5 112.5t-14 151zM158 494q0 -72 11.5 -135.5t28.5 -103.5t34 -69.5t28 -41.5l12 -13l484 750q-3 3 -10 9t-29.5 20.5t-47 25.5t-63.5 20t-80 9q-74 0 -139 -28t-117 -83.5t-82 -148t-30 -211.5zM297 106q10 -9 28 -23 t77.5 -37t123.5 -23q74 0 139 28t117.5 83.5t82.5 148t30 211.5q0 73 -12 137t-29.5 103.5t-34.5 68.5t-29 41l-12 12z" />
<glyph unicode="&#xf9;" horiz-adv-x="1054" d="M164 319v668h37v-668q0 -296 276 -296q65 0 123.5 24t100.5 62.5t73 86t46.5 95.5t15.5 90v606h36v-837q0 -59 19.5 -87t69.5 -28v-35q-7 -2 -21 -2q-44 0 -74 36t-30 116v98q-44 -114 -137 -187t-222 -73q-313 0 -313 331zM319 1454h56l176 -291h-45z" />
<glyph unicode="&#xfa;" horiz-adv-x="1054" d="M164 319v668h37v-668q0 -296 276 -296q65 0 123.5 24t100.5 62.5t73 86t46.5 95.5t15.5 90v606h36v-837q0 -59 19.5 -87t69.5 -28v-35q-7 -2 -21 -2q-44 0 -74 36t-30 116v98q-44 -114 -137 -187t-222 -73q-313 0 -313 331zM457 1163l176 291h55l-186 -291h-45z" />
<glyph unicode="&#xfb;" horiz-adv-x="1054" d="M164 319v668h37v-668q0 -296 276 -296q65 0 123.5 24t100.5 62.5t73 86t46.5 95.5t15.5 90v606h36v-837q0 -59 19.5 -87t69.5 -28v-35q-7 -2 -21 -2q-44 0 -74 36t-30 116v98q-44 -114 -137 -187t-222 -73q-313 0 -313 331zM326 1163l176 291h55l176 -291h-45l-160 248 l-157 -248h-45z" />
<glyph unicode="&#xfc;" horiz-adv-x="1054" d="M164 319v668h37v-668q0 -296 276 -296q65 0 123.5 24t100.5 62.5t73 86t46.5 95.5t15.5 90v606h36v-837q0 -59 19.5 -87t69.5 -28v-35q-7 -2 -21 -2q-44 0 -74 36t-30 116v98q-44 -114 -137 -187t-222 -73q-313 0 -313 331zM336 1296q0 22 15.5 38t37.5 16t37.5 -16 t15.5 -38t-15.5 -37.5t-37.5 -15.5t-37.5 15.5t-15.5 37.5zM637 1296q0 22 15.5 38t37.5 16t37.5 -16t15.5 -38t-15.5 -37.5t-37.5 -15.5t-37.5 15.5t-15.5 37.5z" />
<glyph unicode="&#xfd;" horiz-adv-x="968" d="M80 -489l6 36q45 -18 92 -18q68 0 104 35t66 114l115 306l-377 1003h41l358 -952l359 952h41l-496 -1309q-17 -43 -32.5 -72.5t-40 -57t-59 -41t-79.5 -13.5q-26 0 -50.5 4t-35.5 8zM418 1163l176 291h55l-186 -291h-45z" />
<glyph unicode="&#xfe;" horiz-adv-x="1073" d="M172 -500v1987h37v-711q3 9 10.5 24t36 53.5t64 68t98 53.5t135.5 24q84 0 154 -27.5t126 -84.5t87.5 -154.5t31.5 -228.5q0 -135 -31.5 -236.5t-87 -161.5t-125.5 -89t-153 -29q-56 0 -105 11t-83 28.5t-62 39t-45.5 43t-29.5 39t-16 28.5l-5 11v-688h-37zM209 268 q3 -10 9 -26.5t32.5 -58.5t61 -74.5t99.5 -59t144 -26.5q163 0 261.5 121.5t98.5 359.5q0 120 -29 210.5t-80 144t-114.5 80t-138.5 26.5q-54 0 -102.5 -15t-82.5 -39t-62 -53.5t-45.5 -58.5t-29.5 -53t-17 -39l-5 -15v-424z" />
<glyph unicode="&#xff;" horiz-adv-x="968" d="M80 -489l6 36q45 -18 92 -18q68 0 104 35t66 114l115 306l-377 1003h41l358 -952l359 952h41l-496 -1309q-17 -43 -32.5 -72.5t-40 -57t-59 -41t-79.5 -13.5q-26 0 -50.5 4t-35.5 8zM279 1296q0 22 15.5 38t37.5 16t37.5 -16t15.5 -38t-15.5 -37.5t-37.5 -15.5 t-37.5 15.5t-15.5 37.5zM580 1296q0 22 15.5 38t37.5 16t37.5 -16t15.5 -38t-15.5 -37.5t-37.5 -15.5t-37.5 15.5t-15.5 37.5z" />
<glyph unicode="&#x152;" horiz-adv-x="2172" d="M135 715q0 158 32.5 284.5t87 208.5t129.5 137t155.5 78t169.5 23q92 0 171 -23.5t132 -61.5t95.5 -83.5t66.5 -91t40 -83.5t22 -61l5 -24v416h799v-37h-758v-662h676v-37h-676v-661h758v-37h-799v412q-3 -16 -9 -36.5t-24.5 -64t-42.5 -83t-67 -85.5t-95 -78.5 t-128.5 -54.5t-165.5 -22t-169.5 22.5t-155.5 77t-129.5 136t-87 207.5t-32.5 284zM176 715q0 -149 30 -268t80.5 -196.5t120 -129.5t144.5 -74t158 -22q67 0 129.5 15.5t123 48t110.5 88t88 129.5t59.5 179.5t21.5 231.5t-21.5 231.5t-59.5 179.5t-88 129.5t-110.5 88 t-123 48t-129.5 15.5q-83 0 -158 -22.5t-144.5 -75t-120 -130.5t-80.5 -197.5t-30 -268.5z" />
<glyph unicode="&#x153;" horiz-adv-x="1748" d="M121 494q0 247 112.5 376t292.5 129q67 0 124 -18t95 -44t69 -64.5t48 -68.5t30.5 -68t16.5 -51.5t6 -29.5q0 7 2.5 24.5t12 51t25 67.5t44.5 71t67 65t97.5 46.5t130.5 18.5q93 0 160 -34t104.5 -95t54.5 -135.5t17 -165.5v-34h-692v-39q0 -111 25.5 -198t64 -137.5 t90 -82.5t97.5 -43.5t92 -11.5q56 0 106.5 15.5t82.5 37.5t56 44.5t34 37.5l11 16l27 -24q-3 -7 -10 -17.5t-33.5 -38.5t-59.5 -49.5t-90.5 -39t-123.5 -17.5q-93 0 -167 33.5t-113.5 77t-67 99t-34.5 84.5t-10 48q-3 -16 -6 -29.5t-16.5 -51t-30.5 -67.5t-48 -68.5t-69 -64 t-95 -43.5t-124 -18q-180 0 -292.5 129.5t-112.5 376.5zM158 494q0 -119 30 -211.5t82 -148t117 -83.5t139 -28t139 28t117.5 83.5t82.5 148t30 211.5t-30 211.5t-82.5 148t-117.5 83.5t-139 28t-139 -28t-117 -83.5t-82 -148t-30 -211.5zM940 569h653q0 67 -9 123.5 t-30.5 107.5t-55 87t-85.5 57t-119 21q-150 0 -245 -97t-109 -299z" />
<glyph unicode="&#x178;" horiz-adv-x="1212" d="M76 1434h45l485 -750l486 750h45l-510 -787v-647h-41v647zM401 1743q0 22 16 37.5t38 15.5t37.5 -15.5t15.5 -37.5t-15.5 -37.5t-37.5 -15.5t-38 15.5t-16 37.5zM702 1743q0 22 16 37.5t38 15.5t37.5 -15.5t15.5 -37.5t-15.5 -37.5t-37.5 -15.5t-38 15.5t-16 37.5z" />
<glyph unicode="&#x2c6;" horiz-adv-x="626" d="M111 1163l176 291h55l176 -291h-45l-160 248l-157 -248h-45z" />
<glyph unicode="&#x2dc;" horiz-adv-x="724" d="M123 1268q0 48 29.5 78t83.5 30q50 0 130 -40t130 -40q28 0 45.5 13.5t17.5 40.5q0 16 -3 29t-6 19l-3 5h43q12 -20 12 -53q0 -43 -26.5 -69t-79.5 -26q-50 0 -97 20t-88 40t-75 20q-32 0 -52 -18t-20 -49q0 -15 4 -30t8 -22l4 -8h-43q-14 25 -14 60z" />
<glyph unicode="&#x2000;" horiz-adv-x="950" />
<glyph unicode="&#x2001;" horiz-adv-x="1901" />
<glyph unicode="&#x2002;" horiz-adv-x="950" />
<glyph unicode="&#x2003;" horiz-adv-x="1901" />
<glyph unicode="&#x2004;" horiz-adv-x="633" />
<glyph unicode="&#x2005;" horiz-adv-x="475" />
<glyph unicode="&#x2006;" horiz-adv-x="316" />
<glyph unicode="&#x2007;" horiz-adv-x="316" />
<glyph unicode="&#x2008;" horiz-adv-x="237" />
<glyph unicode="&#x2009;" horiz-adv-x="380" />
<glyph unicode="&#x200a;" horiz-adv-x="105" />
<glyph unicode="&#x2010;" horiz-adv-x="821" d="M160 545v37h502v-37h-502z" />
<glyph unicode="&#x2011;" horiz-adv-x="821" d="M160 545v37h502v-37h-502z" />
<glyph unicode="&#x2012;" horiz-adv-x="821" d="M160 545v37h502v-37h-502z" />
<glyph unicode="&#x2013;" horiz-adv-x="1103" d="M160 545v37h784v-37h-784z" />
<glyph unicode="&#x2014;" horiz-adv-x="1841" d="M160 545v37h1521v-37h-1521z" />
<glyph unicode="&#x2018;" horiz-adv-x="317" d="M102 1405q0 37 10 66.5t25 44.5t29.5 25t24.5 13l10 2l20 -34q-2 -1 -6 -2t-14.5 -7.5t-18 -15t-14 -24t-6.5 -35.5q21 0 37 -15.5t16 -38.5q0 -22 -15.5 -37.5t-37.5 -15.5q-28 0 -44 21t-16 53z" />
<glyph unicode="&#x2019;" horiz-adv-x="387" d="M139 1270q2 1 6.5 2t14.5 7.5t18 15t14.5 24t6.5 35.5q-21 0 -37.5 15t-16.5 38q0 22 16 37.5t38 15.5q28 0 43.5 -21t15.5 -53q0 -37 -10 -66.5t-24.5 -44.5t-29 -25t-24.5 -12l-10 -3z" />
<glyph unicode="&#x201a;" horiz-adv-x="403" d="M139 -96q2 1 6.5 2t14.5 7.5t18 15t14.5 24t6.5 35.5q-21 0 -37.5 15t-16.5 38q0 22 16 37.5t38 15.5q28 0 43.5 -21t15.5 -53q0 -37 -10 -66.5t-24.5 -44.5t-29 -25t-24.5 -12l-10 -3z" />
<glyph unicode="&#x201c;" horiz-adv-x="491" d="M102 1405q0 37 10 66.5t25 44.5t29.5 25t24.5 13l10 2l20 -34q-2 -1 -6 -2t-14.5 -7.5t-18 -15t-14 -24t-6.5 -35.5q21 0 37 -15.5t16 -38.5q0 -22 -15.5 -37.5t-37.5 -15.5q-28 0 -44 21t-16 53zM276 1405q0 37 10 66.5t25 44.5t29.5 25t24.5 13l10 2l20 -34 q-2 -1 -6 -2t-14.5 -7.5t-18 -15t-14 -24t-6.5 -35.5q21 0 37 -15.5t16 -38.5q0 -22 -15.5 -37.5t-37.5 -15.5q-28 0 -44 21t-16 53z" />
<glyph unicode="&#x201d;" horiz-adv-x="563" d="M139 1268q2 1 6.5 2t14.5 7.5t18 15t14.5 24t6.5 35.5q-21 0 -37.5 15t-16.5 38q0 22 16 37.5t38 15.5q28 0 43.5 -21t15.5 -53q0 -37 -10 -66.5t-24.5 -44.5t-29 -25t-24.5 -12l-10 -3zM313 1268q2 1 6.5 2t14.5 7.5t18 15t14.5 24t6.5 35.5q-21 0 -37.5 15t-16.5 38 q0 22 16 37.5t38 15.5q28 0 43.5 -21t15.5 -53q0 -37 -10 -66.5t-24.5 -44.5t-29 -25t-24.5 -12l-10 -3z" />
<glyph unicode="&#x201e;" horiz-adv-x="567" d="M139 -96q2 1 6.5 2t14.5 7.5t18 15t14.5 24t6.5 35.5q-21 0 -37.5 15t-16.5 38q0 22 16 37.5t38 15.5q28 0 43.5 -21t15.5 -53q0 -37 -10 -66.5t-24.5 -44.5t-29 -25t-24.5 -12l-10 -3zM303 -96q2 1 6 2t14.5 7.5t18 15t14 24t6.5 35.5q-21 0 -37 15t-16 38 q0 22 15.5 37.5t37.5 15.5q28 0 44 -21t16 -53q0 -37 -10 -66.5t-24.5 -44.5t-29 -25t-24.5 -12l-10 -3z" />
<glyph unicode="&#x2022;" horiz-adv-x="647" d="M209 592q0 47 34 81t81 34t80.5 -34t33.5 -81t-33.5 -81t-80.5 -34t-81 34t-34 81z" />
<glyph unicode="&#x2026;" horiz-adv-x="954" d="M145 41q0 22 16 37.5t38 15.5t37.5 -15.5t15.5 -37.5t-15.5 -37.5t-37.5 -15.5t-38 15.5t-16 37.5zM424 41q0 22 15.5 37.5t37.5 15.5t37.5 -15.5t15.5 -37.5t-15.5 -37.5t-37.5 -15.5t-37.5 15.5t-15.5 37.5zM702 41q0 22 16 37.5t38 15.5t37.5 -15.5t15.5 -37.5 t-15.5 -37.5t-37.5 -15.5t-38 15.5t-16 37.5z" />
<glyph unicode="&#x202f;" horiz-adv-x="380" />
<glyph unicode="&#x2039;" horiz-adv-x="540" d="M106 522v37l256 266l25 -28l-248 -256l248 -256l-25 -29z" />
<glyph unicode="&#x203a;" horiz-adv-x="540" d="M154 285l247 256l-247 256l24 28l256 -266v-37l-256 -266z" />
<glyph unicode="&#x205f;" horiz-adv-x="475" />
<glyph unicode="&#x20ac;" horiz-adv-x="1347" d="M109 547v37h190q-4 58 -4 94q0 76 4 115h-190v36h194q10 96 32.5 177.5t65 157t101.5 128t146 84t196 31.5q213 0 346 -107l-29 -28q-120 98 -317 98q-72 0 -136 -15.5t-126 -54.5t-109 -99.5t-81.5 -155t-47.5 -216.5h604v-36h-608q-4 -37 -4 -115q0 -32 4 -94h608v-37 h-604q13 -113 50.5 -203.5t99 -157.5t152.5 -103t206 -36q185 0 334 115l24 -29q-147 -123 -358 -123q-108 0 -199 30t-165 92.5t-122 168t-63 246.5h-194z" />
<glyph unicode="&#x2122;" horiz-adv-x="1552" d="M127 1399v35h569v-35h-266v-682h-37v682h-266zM758 717v717h61l246 -564l250 564h57v-717h-37v682l-250 -565h-41l-249 565v-682h-37z" />
<glyph unicode="&#x25fc;" horiz-adv-x="983" d="M0 0v983h983v-983h-983z" />
</font>
</defs>
</svg>
